<?xml version="1.0" encoding="UTF-8"?>
<!DOCTYPE svg PUBLIC "-//W3C//DTD SVG 1.1//EN" "http://www.w3.org/Graphics/SVG/1.1/DTD/svg11.dtd">
<!-- Creator: CorelDRAW X7 -->
<svg xmlns="http://www.w3.org/2000/svg" xml:space="preserve" width="140.946mm" height="55.5374mm" version="1.1" style="shape-rendering:geometricPrecision; text-rendering:geometricPrecision; image-rendering:optimizeQuality; fill-rule:evenodd; clip-rule:evenodd"
viewBox="0 0 16223 6393"
 xmlns:xlink="http://www.w3.org/1999/xlink">
 <defs>
  <style type="text/css">
   <![CDATA[
    .fil1 {fill:#1A98D5}
    .fil0 {fill:#2E2E2E;fill-rule:nonzero}
   ]]>
  </style>
 </defs>
 <g id="Слой_x0020_1">
  <metadata id="CorelCorpID_0Corel-Layer"/>
  <path class="fil0" d="M7950 3072l-362 0 -21 0 -7 -20 -136 -358 -624 0 -131 358 -7 20 -22 0 -355 0 -45 0 16 -41 645 -1661 8 -20 21 0 355 0 20 0 8 19 665 1662 17 41 -45 0zm-658 -719l-187 -498 -181 498 368 0zm1143 782l4 23c2,19 7,34 12,46 5,10 11,18 18,23l0 0c12,9 28,16 47,20 22,5 47,8 78,8 39,0 74,-3 103,-9 28,-5 50,-13 68,-24 11,-6 20,-15 29,-26 8,-10 16,-24 22,-39l0 0c4,-11 7,-27 9,-49 2,-23 3,-52 3,-87l1 0 0 -92c-36,38 -75,68 -117,90 -64,36 -136,53 -214,53 -85,0 -162,-18 -231,-55 -69,-36 -128,-91 -178,-163 -39,-57 -68,-120 -87,-191 -20,-70 -30,-146 -30,-229 0,-104 13,-196 38,-276 26,-81 65,-150 116,-206 52,-57 110,-99 174,-128 64,-28 135,-42 211,-42 80,0 152,17 218,52l0 1c43,23 83,53 120,91l0 -88 0 -31 31 0 297 0 30 0 0 31 0 1079c0,72 -3,135 -9,190 -6,55 -15,101 -28,138l0 0c-12,37 -27,70 -45,100 -17,30 -38,56 -61,78 -23,22 -50,41 -81,58 -30,17 -63,31 -100,43l0 0c-37,12 -79,21 -126,27 -46,5 -97,8 -151,8 -105,0 -194,-9 -269,-27 -77,-19 -139,-47 -185,-85l0 0c-46,-38 -81,-81 -104,-129 -18,-37 -29,-77 -33,-119l420 -64zm-75 -720c0,62 6,114 18,158 11,43 27,77 49,103l0 0c22,26 46,46 73,59 26,13 55,19 87,19 34,0 65,-7 94,-20 29,-13 55,-34 79,-61l0 0c24,-27 42,-61 54,-101 13,-42 19,-92 19,-148 0,-60 -6,-112 -18,-155 -11,-42 -29,-76 -51,-103l-1 0c-22,-27 -48,-47 -76,-60l0 0c-29,-13 -60,-20 -95,-20 -34,0 -64,7 -91,20 -27,12 -52,32 -74,58l0 0c-22,26 -38,60 -49,101 -12,42 -18,92 -18,150zm1383 657l-317 0 -31 0 0 -30 0 -1204 0 -31 31 0 294 0 30 0 0 31 0 74c7,-8 13,-16 19,-23 25,-29 49,-51 72,-65 23,-14 47,-25 73,-32 26,-7 53,-10 81,-10 39,0 78,5 115,16 38,11 74,27 110,48l2 1 -173 305c-10,-5 -20,-9 -30,-13 -22,-7 -42,-11 -62,-11 -20,0 -37,3 -53,8 -15,5 -29,12 -42,22l0 0c-12,10 -24,24 -34,43 -11,20 -21,45 -29,74 -8,30 -14,78 -19,143 -4,66 -6,150 -6,253l0 371 0 30 -31 0zm442 -647c0,-55 7,-110 21,-164 13,-53 34,-106 61,-157 27,-53 61,-99 100,-139 39,-39 83,-73 134,-101 50,-27 103,-48 159,-61 55,-14 114,-21 175,-21 191,0 347,62 469,187 61,62 107,132 137,211 31,78 46,165 46,259 0,94 -15,182 -46,261 -31,79 -77,150 -138,213l-1 0c-61,63 -131,111 -209,142 -77,32 -163,47 -256,47 -57,0 -113,-6 -168,-19 -55,-13 -108,-33 -161,-59l0 0c-52,-26 -99,-59 -139,-97 -40,-39 -74,-84 -102,-135 -27,-51 -48,-107 -61,-168 -14,-61 -21,-128 -21,-199zm388 17c0,112 26,197 77,254 26,29 54,51 85,65 31,14 65,21 102,21 37,0 71,-7 102,-21 30,-14 58,-36 84,-64l0 0c25,-29 44,-64 57,-106 13,-43 19,-93 19,-151 0,-56 -6,-106 -19,-148 -13,-41 -32,-76 -57,-104l0 0c-26,-29 -54,-50 -84,-65 -31,-14 -65,-21 -102,-21 -37,0 -71,7 -102,21 -31,15 -59,36 -85,65 -25,28 -44,63 -57,105 -13,42 -20,92 -20,149zm-4312 2567l0 -1661 0 -31 31 0 1141 0 30 0 0 31 0 280 0 31 -30 0 -775 0 0 333 666 0 30 0 0 31 0 280 0 31 -30 0 -666 0 0 675 0 30 -30 0 -336 0 -31 0 0 -30zm1288 -617c0,-56 7,-110 21,-164 13,-53 34,-106 61,-158 28,-52 61,-98 100,-138 39,-40 84,-73 134,-101 50,-27 103,-48 159,-62 55,-13 114,-20 175,-20 191,0 347,62 469,186 61,63 107,133 138,212 30,78 45,164 45,258 0,95 -15,182 -46,262 -31,79 -77,150 -138,213l0 0c-62,63 -132,110 -210,142 -77,31 -162,47 -255,47 -58,0 -114,-7 -169,-20 -55,-13 -108,-32 -160,-58l0 0c-53,-27 -100,-59 -140,-98 -40,-39 -74,-83 -102,-135 -27,-50 -48,-106 -61,-167 -14,-62 -21,-128 -21,-199zm388 17c0,112 26,197 77,254 26,29 54,50 85,65 31,14 65,21 102,21 37,0 71,-7 102,-22 31,-14 59,-35 84,-64l0 0c25,-28 44,-63 57,-105 13,-43 19,-94 19,-151 0,-57 -6,-106 -19,-148 -13,-41 -32,-76 -57,-105l0 0c-25,-28 -53,-50 -84,-64 -31,-14 -65,-21 -102,-21 -37,0 -71,7 -102,21 -31,14 -59,36 -85,64 -25,29 -44,64 -57,105 -13,43 -20,93 -20,150zm1872 231l320 -49 28 -4 6 28c6,27 15,51 27,72 12,20 27,37 44,50l0 0c18,14 39,24 64,31 27,7 57,11 92,11 39,0 73,-4 101,-11 27,-6 49,-16 67,-28l0 0c10,-8 18,-17 22,-27l0 0c5,-10 8,-21 8,-35 0,-8 -2,-15 -4,-22l0 0c-2,-6 -6,-11 -10,-16 -5,-5 -15,-10 -29,-16 -16,-6 -37,-12 -63,-18l0 0c-129,-29 -235,-56 -317,-82 -84,-27 -145,-53 -182,-78l0 0c-52,-36 -91,-78 -117,-128 -26,-50 -39,-106 -39,-169 0,-56 11,-109 34,-157 22,-48 56,-91 100,-129 45,-39 101,-67 169,-86 67,-19 145,-28 234,-28 84,0 158,7 221,21l0 0c65,14 120,36 163,65l0 0c43,29 80,65 109,108 30,43 53,92 69,148l9 32 -33 6 -299 56 -28 5 -7 -27c-6,-21 -14,-39 -24,-54l0 0c-10,-15 -23,-28 -38,-38 -14,-10 -33,-18 -55,-24 -23,-5 -50,-8 -82,-8 -40,0 -74,3 -102,8 -27,5 -47,13 -62,22 -8,6 -14,12 -18,18 -3,6 -5,14 -5,21 0,7 1,13 4,18 3,5 8,11 16,16l0 0c11,9 40,20 86,34 50,15 117,32 201,51 86,19 160,41 221,65 62,25 111,53 147,83l1 0c37,31 64,69 83,113 18,43 28,92 28,147 0,60 -13,116 -38,167l0 0c-25,52 -62,98 -112,141l0 0c-49,42 -110,74 -182,95 -71,21 -154,31 -247,31 -84,0 -160,-9 -227,-26 -69,-17 -129,-44 -180,-79 -50,-35 -93,-76 -126,-124 -33,-48 -58,-102 -73,-163l-9 -32 34 -5zm2121 369l0 -96c-8,8 -17,17 -26,24 -31,28 -65,51 -103,72l0 0c-38,20 -77,35 -117,45 -40,10 -81,15 -123,15 -86,0 -164,-19 -233,-57l0 0c-35,-19 -65,-43 -90,-70 -26,-28 -47,-59 -62,-94 -16,-35 -27,-76 -35,-123 -8,-47 -11,-99 -11,-157l0 -763 0 -31 30 0 318 0 30 0 0 31 0 554c0,85 2,153 4,203 3,50 7,83 13,100l0 0c4,16 11,30 20,43 9,12 20,23 32,32l1 0c25,18 59,28 100,28 25,0 47,-4 69,-10 21,-7 41,-17 60,-30 20,-13 36,-27 49,-44 12,-16 22,-33 29,-52l0 0c7,-20 12,-56 16,-107 4,-53 6,-123 6,-209l0 -508 0 -31 30 0 318 0 30 0 0 31 0 1204 0 30 -30 0 -295 0 -30 0 0 -30zm1694 30l-317 0 -31 0 0 -30 0 -614c0,-64 -2,-117 -5,-158 -3,-39 -8,-67 -14,-84l1 0c-6,-16 -14,-30 -23,-42 -9,-13 -20,-23 -33,-32 -13,-8 -27,-15 -42,-19 -16,-5 -33,-7 -52,-7 -25,0 -49,3 -71,10 -22,7 -42,17 -62,30l0 0c-19,13 -35,28 -49,45l0 1c-13,17 -23,37 -30,58l0 0c-8,23 -13,56 -17,100 -4,44 -6,100 -6,167l0 545 0 30 -30 0 -318 0 -31 0 0 -30 0 -1204 0 -31 31 0 294 0 31 0 0 31 0 96c41,-41 86,-74 134,-99 71,-35 149,-53 234,-53 37,0 73,3 107,10 34,6 67,17 98,30l0 0c32,14 59,29 83,47 25,18 45,37 62,59 16,21 30,44 42,69 11,24 20,50 26,77l0 0c6,26 11,58 14,95 3,36 5,78 5,125l0 748 0 30 -31 0zm228 -30l0 -1421c9,1 18,1 27,1 168,0 308,-116 346,-272l6 0 0 31 0 800 319 -363 9 -11 14 0 392 0 69 0 -47 51 -396 424 430 745 26 45 -52 0 -343 0 -18 0 -9 -16 -284 -507 -110 119 0 374 0 30 -31 0 -318 0 -30 0 0 -30zm1674 -1261c71,0 138,15 201,45 41,20 80,46 117,79l0 -66 0 -31 31 0 318 0 30 0 0 31 0 1203 0 30 -30 0 -326 0 -31 0 0 -30 0 -73 -5 6c-27,29 -58,52 -94,70l0 0c-35,18 -71,32 -106,40 -36,9 -73,14 -110,14 -36,0 -72,-4 -107,-11 -34,-8 -67,-20 -100,-35l0 0c-33,-15 -64,-34 -92,-56 -28,-22 -55,-47 -79,-76l0 0c-24,-28 -46,-60 -65,-95 -19,-35 -35,-73 -49,-113l0 -1c-14,-41 -24,-84 -31,-130 -7,-47 -10,-95 -10,-146 0,-53 3,-103 10,-149 7,-47 17,-91 31,-132l0 0c13,-41 29,-78 48,-112 19,-34 40,-65 64,-93l0 0c25,-28 51,-53 80,-74 28,-21 59,-39 92,-53l0 0c33,-14 67,-25 103,-32 35,-7 72,-10 110,-10zm-152 633c0,37 1,71 5,101 3,30 7,57 14,82 6,24 14,45 22,64 9,19 19,35 29,49l1 1c10,13 21,25 34,35 12,10 24,17 38,23l0 0c14,6 29,10 45,13 16,3 32,5 50,5 16,0 31,-2 46,-5 15,-3 29,-8 43,-15 14,-7 27,-15 39,-25 12,-10 23,-23 34,-37l0 0c11,-14 20,-29 29,-47 8,-18 16,-38 23,-60 6,-22 11,-45 14,-70 4,-25 5,-53 5,-83 0,-35 -1,-66 -5,-95 -3,-28 -7,-54 -14,-77 -6,-23 -13,-43 -22,-62 -9,-18 -18,-34 -29,-48l0 0c-10,-14 -22,-25 -34,-35 -12,-10 -25,-18 -39,-24 -14,-6 -29,-11 -44,-14 -15,-3 -31,-5 -49,-5 -16,0 -32,2 -48,5 -15,4 -30,9 -43,15 -14,6 -27,15 -40,25 -12,9 -23,21 -34,34l0 0c-11,13 -21,28 -29,45 -9,17 -16,36 -22,57 -7,21 -11,43 -14,67 -4,25 -5,52 -5,81z"/>
  <path class="fil1" d="M4566 4523c696,-1191 618,-2919 -140,-4523 -479,1204 -3130,1219 -3942,2402 -781,1138 -416,2168 -277,2828 574,-1414 1640,-2373 3273,-2808 -1623,904 -2575,2358 -3051,3971l425 0 223 -661c1355,219 2793,-17 3489,-1209z"/>
  <path class="fil1" d="M14741 3424l-269 0 -27 0 0 -27 0 -1055 0 -27 27 0 249 0 26 0 0 27 0 65c6,-8 11,-14 17,-21 22,-25 43,-44 63,-56 20,-13 41,-22 64,-28 22,-6 46,-9 71,-9 34,0 68,4 101,14 33,9 65,23 96,42l2 1 -152 267c-9,-4 -18,-8 -27,-11 -18,-7 -37,-10 -54,-10 -17,0 -32,2 -46,7 -14,4 -26,11 -37,20l0 -1c-11,9 -21,21 -30,38 -9,17 -18,39 -25,65 -7,27 -13,68 -17,125 -3,58 -5,132 -5,222l0 325 0 27 -27 0zm1182 -18l0 -106c-12,13 -24,25 -37,36 -27,24 -56,45 -90,63l0 0c-33,17 -67,31 -102,39 -35,9 -71,14 -108,14 -38,0 -73,-4 -107,-13 -34,-8 -66,-21 -97,-37l0 0c-30,-17 -56,-37 -78,-61 -23,-24 -41,-51 -54,-82 -14,-30 -24,-66 -31,-107 -6,-41 -9,-87 -9,-139l0 -680 0 -19 19 0 283 0 19 0 0 19 0 494c0,76 1,136 4,182 2,44 6,74 11,90l0 0c4,15 11,29 19,41 9,11 19,21 31,30l0 0c12,9 26,15 41,20 16,4 34,6 53,6 23,0 44,-3 64,-9 20,-6 38,-15 56,-27 18,-12 32,-26 44,-41 12,-15 21,-31 28,-49l0 0c6,-18 11,-51 15,-98 3,-47 5,-109 5,-186l0 -453 0 -19 19 0 283 0 19 0 0 19 0 1073 0 19 -19 0 -262 0 -19 0 0 -19z"/>
  <path class="fil0" d="M9323 5039l-318 0 -31 0 0 -30 0 -1204 0 -31 31 0 294 0 31 0 0 31 0 74c6,-9 13,-16 19,-24 25,-28 48,-50 71,-64 23,-14 48,-25 73,-32 26,-7 53,-10 81,-10 39,0 78,5 115,16 38,11 75,27 111,48l1 1 -172 305c-11,-5 -21,-10 -31,-13 -21,-8 -42,-11 -62,-11 -19,0 -37,2 -53,7 -15,5 -29,13 -42,23l0 0c-12,10 -23,24 -34,42 -11,21 -20,45 -29,75 -8,30 -14,78 -18,143 -5,66 -7,150 -7,252l0 372 0 30 -30 0z"/>
  <path class="fil1" d="M13879 3020c118,0 214,95 214,213 0,118 -96,214 -214,214 -118,0 -213,-96 -213,-214 0,-118 95,-213 213,-213z"/>
 </g>
</svg>
