<?xml version="1.0" encoding="UTF-8"?>
<!DOCTYPE svg PUBLIC "-//W3C//DTD SVG 1.1//EN" "http://www.w3.org/Graphics/SVG/1.1/DTD/svg11.dtd">
<!-- Creator: CorelDRAW X7 -->
<svg xmlns="http://www.w3.org/2000/svg" xml:space="preserve" width="18px" height="16px" version="1.1" style="shape-rendering:geometricPrecision; text-rendering:geometricPrecision; image-rendering:optimizeQuality; fill-rule:evenodd; clip-rule:evenodd"
viewBox="0 0 86 78"
 xmlns:xlink="http://www.w3.org/1999/xlink">
 <defs>
  <style type="text/css">
   <![CDATA[
    .fil0 {fill:#2B2A29}
   ]]>
  </style>
 </defs>
 <g id="Слой_x0020_1">
  <metadata id="CorelCorpID_0Corel-Layer"/>
  <path class="fil0" d="M39 78c-4,-2 -8,-6 -12,-12 0,0 -1,0 -1,0 -1,0 -2,-1 -3,-1 0,0 0,0 0,0 -1,0 -1,0 -2,-1 0,0 0,0 -1,1 0,0 0,0 -1,0l-5 11c-1,2 -4,2 -6,1 -1,-1 -2,-3 -1,-5l6 -10 0 0 0 0c1,-2 2,-3 4,-4 2,-1 4,-1 5,-1 0,0 1,0 1,0l0 0c0,-2 -1,-4 -1,-6l-15 0c-2,0 -4,-2 -4,-4 0,-2 2,-4 4,-4l15 0c1,-2 1,-4 2,-5l-8 -8c0,0 0,0 -1,0 0,0 0,0 0,0l0 0 -10 4c-2,0 -4,-1 -5,-3 0,-2 1,-4 3,-5l10 -3 0 0c1,0 2,0 4,0 1,0 2,0 3,1 0,0 1,0 1,1l6 6c2,-2 5,-4 8,-5 3,-1 5,1 5,4 0,16 0,30 0,45 1,2 1,3 -1,3zm8 0c4,-2 8,-6 12,-12 0,0 1,0 1,0 1,0 2,-1 3,-1 0,0 0,0 0,0 1,0 1,0 2,-1 0,0 0,0 0,1 1,0 1,0 1,0l6 11c1,2 4,2 5,1 2,-1 3,-3 2,-5l-6 -10 0 0 0 0c-1,-2 -3,-3 -4,-4 -2,-1 -4,-1 -5,-1 -1,0 -1,0 -1,0l-1 0c1,-2 1,-4 2,-6l15 0c2,0 4,-2 4,-4 0,-2 -2,-4 -4,-4l-16 0c0,-2 0,-4 -1,-5l8 -8c0,0 0,0 0,0 0,0 1,0 1,0l0 0 10 4c2,0 4,-1 5,-3 0,-2 -1,-4 -3,-5l-10 -3 0 0c-1,0 -3,0 -4,0 -1,0 -2,0 -3,1 -1,0 -1,0 -1,1l-6 6c-2,-2 -5,-4 -8,-5 -3,-1 -6,1 -6,4 0,16 0,30 0,45 0,2 0,3 2,3zm24 -78c1,0 2,1 2,3 0,1 -1,2 -3,2 -4,0 -8,0 -11,2 -3,1 -5,3 -7,6 3,2 4,6 4,9l0 0c-3,-2 -8,-4 -13,-4 -5,0 -10,2 -13,4l0 0c0,-3 1,-7 4,-9 -2,-3 -5,-5 -7,-6 -3,-2 -7,-2 -11,-2 -2,0 -3,-1 -3,-2 0,-2 1,-3 2,-3 5,0 10,0 14,2 3,2 6,4 8,8 2,-1 4,-2 6,-2 2,0 4,1 5,2 3,-4 6,-6 9,-8 4,-2 9,-2 14,-2z"/>
 </g>
</svg>
