<svg xmlns="http://www.w3.org/2000/svg" xml:space="preserve" width="31px" height="27px" version="1.1" style="shape-rendering:geometricPrecision; text-rendering:geometricPrecision; image-rendering:optimizeQuality; fill-rule:evenodd; clip-rule:evenodd" fill="none"
viewBox="0 0 413 363"
 xmlns:xlink="http://www.w3.org/1999/xlink">
 <g id="Слой_x0020_1">
  <metadata id="CorelCorpID_0Corel-Layer"/>
  <path class="fil0" d="M148 270c13,0 25,5 33,13 9,9 14,20 14,33 0,13 -5,25 -14,33 -8,9 -20,14 -33,14 -13,0 -24,-5 -33,-14 -8,-8 -13,-20 -13,-33 0,-13 5,-24 13,-33 9,-8 20,-13 33,-13zm-46 -94c0,-1 0,-2 0,-3l-19 -106c-1,-1 -1,-3 -1,-4l-6 -30 -60 0c-9,0 -16,-8 -16,-17 0,-9 7,-16 16,-16l74 0c8,0 15,7 16,15l6 31 285 0 0 0c2,0 4,0 6,1 8,4 12,13 9,22l-46 109c-2,6 -8,10 -15,10l-213 0 8 47 209 0c9,0 17,7 17,16 0,9 -8,17 -17,17l-223 0 0 -1c-7,0 -14,-5 -16,-13l-14 -78zm30 -21l208 0 32 -76 -254 0 14 76zm184 115c13,0 24,5 33,13 8,9 14,20 14,33 0,13 -6,25 -14,33 -9,9 -20,14 -33,14 -13,0 -25,-5 -33,-14l0 0c-8,-8 -14,-20 -14,-33 0,-13 6,-24 14,-33 0,0 1,-1 1,-1 8,-8 20,-12 32,-12zm10 36c-3,-2 -6,-4 -10,-4 -4,0 -7,1 -9,4l-1 0c-3,3 -4,6 -4,10 0,4 1,8 4,10l0 0 0 0c3,3 6,4 10,4 4,0 7,-1 10,-4 2,-2 4,-6 4,-10 0,-4 -2,-7 -4,-10zm-168 0c-2,-2 -6,-4 -10,-4 -4,0 -7,2 -10,4 -2,3 -4,6 -4,10 0,4 2,8 4,10 3,3 6,4 10,4 4,0 8,-1 10,-4 3,-2 4,-6 4,-10 0,-4 -1,-7 -4,-10z"/>
 </g>
</svg>
