<svg width="12" height="12" viewBox="0 0 12 12" fill="none" xmlns="http://www.w3.org/2000/svg">
<g opacity="0.5" clip-path="url(#clip0_87_253)">
<path d="M10.3291 0.303686C10.7848 -0.15201 11.2405 -0.15201 11.6962 0.303686C12 0.607484 12 1.21508 11.6962 1.51888L7.29115 5.92394L11.6962 10.329C12 10.7847 12 11.2404 11.6962 11.6961C11.2405 11.9999 10.7848 11.9999 10.3291 11.6961L5.92406 7.29103L1.519 11.6961C1.2152 11.9999 0.607606 11.9999 0.303808 11.6961C-0.151888 11.2404 -0.151888 10.7847 0.303808 10.329L4.70887 5.92394L0.303808 1.51888C-0.151888 1.21508 -0.151888 0.607484 0.303808 0.303686C0.607606 -0.15201 1.2152 -0.15201 1.519 0.303686L5.92406 4.70875L10.3291 0.303686Z" fill="#2B2A29"/>
</g>
<defs>
<clipPath id="clip0_87_253">
<rect width="12" height="12" fill="white"/>
</clipPath>
</defs>
</svg>
