<?xml version="1.0" encoding="UTF-8"?>
<!DOCTYPE svg PUBLIC "-//W3C//DTD SVG 1.1//EN" "http://www.w3.org/Graphics/SVG/1.1/DTD/svg11.dtd">
<!-- Creator: CorelDRAW X7 -->
<svg xmlns="http://www.w3.org/2000/svg" xml:space="preserve" width="14px" height="14px" version="1.1" style="shape-rendering:geometricPrecision; text-rendering:geometricPrecision; image-rendering:optimizeQuality; fill-rule:evenodd; clip-rule:evenodd"
viewBox="0 0 3494 2898"
 xmlns:xlink="http://www.w3.org/1999/xlink">
 <defs>
  <style type="text/css">
   <![CDATA[
    .fil0 {fill:#218ACA}
   ]]>
  </style>
 </defs>
 <g id="Слой_x0020_1">
  <metadata id="CorelCorpID_0Corel-Layer"/>
  <path class="fil0" d="M3332 2c-75,-9 -169,12 -274,50 -193,69 -2654,1114 -2796,1175 -134,57 -262,120 -262,210 0,63 38,99 142,136 108,39 380,121 542,166 155,43 331,5 430,-56 105,-65 1315,-875 1402,-946 87,-71 156,20 85,91 -71,71 -902,877 -1011,989 -133,135 -39,276 50,332 102,65 835,556 946,635 110,79 222,114 324,114 103,0 157,-135 208,-291 60,-184 340,-2012 374,-2372 11,-109 -24,-182 -91,-214 -21,-10 -44,-16 -69,-19z"/>
 </g>
</svg>
