<svg width="18" height="16" viewBox="0 0 18 16" fill="none" xmlns="http://www.w3.org/2000/svg">
<path fill-rule="evenodd" clip-rule="evenodd" d="M8 16C7.17949 15.5897 6.35897 14.7692 5.53846 13.5385H5.33333C5.12821 13.5385 4.92308 13.3333 4.71795 13.3333C4.51282 13.3333 4.51282 13.3333 4.30769 13.1282C4.30769 13.1282 4.30769 13.1282 4.10256 13.3333C4.10256 13.3333 4.10256 13.3333 3.89744 13.3333L2.87179 15.5897C2.66667 16 2.05128 16 1.64103 15.7949C1.4359 15.5897 1.23077 15.1795 1.4359 14.7692L2.66667 12.7179C2.87179 12.3077 3.07692 12.1026 3.48718 11.8974C3.89744 11.6923 4.30769 11.6923 4.51282 11.6923H4.71795C4.71795 11.2821 4.51282 10.8718 4.51282 10.4615H1.4359C1.02564 10.4615 0.615385 10.0513 0.615385 9.64103C0.615385 9.23077 1.02564 8.82051 1.4359 8.82051H4.51282C4.71795 8.41026 4.71795 8 4.92308 7.79487L3.28205 6.15385C3.28205 6.15385 3.28205 6.15385 3.07692 6.15385L1.02564 6.97436C0.615385 6.97436 0.205128 6.76923 0 6.35897C0 5.94872 0.205128 5.53846 0.615385 5.33333L2.66667 4.71795C2.87179 4.71795 3.07692 4.71795 3.48718 4.71795C3.69231 4.71795 3.89744 4.71795 4.10256 4.92308C4.10256 4.92308 4.30769 4.92308 4.30769 5.12821L5.53846 6.35897C5.94872 5.94872 6.5641 5.53846 7.17949 5.33333C7.79487 5.12821 8.20513 5.53846 8.20513 6.15385C8.20513 9.4359 8.20513 12.3077 8.20513 15.3846C8.41026 15.7949 8.41026 16 8 16ZM9.64103 16C10.4615 15.5897 11.2821 14.7692 12.1026 13.5385H12.3077C12.5128 13.5385 12.7179 13.3333 12.9231 13.3333C13.1282 13.3333 13.1282 13.3333 13.3333 13.1282C13.3333 13.1282 13.3333 13.1282 13.3333 13.3333C13.5385 13.3333 13.5385 13.3333 13.5385 13.3333L14.7692 15.5897C14.9744 16 15.5897 16 15.7949 15.7949C16.2051 15.5897 16.4103 15.1795 16.2051 14.7692L14.9744 12.7179C14.7692 12.3077 14.359 12.1026 14.1538 11.8974C13.7436 11.6923 13.3333 11.6923 13.1282 11.6923C12.9231 11.6923 12.9231 11.6923 12.9231 11.6923H12.7179C12.9231 11.2821 12.9231 10.8718 13.1282 10.4615H16.2051C16.6154 10.4615 17.0256 10.0513 17.0256 9.64103C17.0256 9.23077 16.6154 8.82051 16.2051 8.82051H12.9231C12.9231 8.41026 12.9231 8 12.7179 7.79487L14.359 6.15385H14.5641L16.6154 6.97436C17.0256 6.97436 17.4359 6.76923 17.641 6.35897C17.641 5.94872 17.4359 5.53846 17.0256 5.33333L14.9744 4.71795C14.7692 4.71795 14.359 4.71795 14.1538 4.71795C13.9487 4.71795 13.7436 4.71795 13.5385 4.92308C13.3333 4.92308 13.3333 4.92308 13.3333 5.12821L12.1026 6.35897C11.6923 5.94872 11.0769 5.53846 10.4615 5.33333C9.84615 5.12821 9.23077 5.53846 9.23077 6.15385C9.23077 9.4359 9.23077 12.3077 9.23077 15.3846C9.23077 15.7949 9.23077 16 9.64103 16ZM14.5641 0C14.7692 0 14.9744 0.205128 14.9744 0.615385C14.9744 0.820513 14.7692 1.02564 14.359 1.02564C13.5385 1.02564 12.7179 1.02564 12.1026 1.4359C11.4872 1.64103 11.0769 2.05128 10.6667 2.66667C11.2821 3.07692 11.4872 3.89744 11.4872 4.51282C10.8718 4.10256 9.84615 3.69231 8.82051 3.69231C7.79487 3.69231 6.76923 4.10256 6.15385 4.51282C6.15385 3.89744 6.35897 3.07692 6.97436 2.66667C6.5641 2.05128 5.94872 1.64103 5.53846 1.4359C4.92308 1.02564 4.10256 1.02564 3.28205 1.02564C2.87179 1.02564 2.66667 0.820513 2.66667 0.615385C2.66667 0.205128 2.87179 0 3.07692 0C4.10256 0 5.12821 0 5.94872 0.410256C6.5641 0.820513 7.17949 1.23077 7.58974 2.05128C8 1.84615 8.41026 1.64103 8.82051 1.64103C9.23077 1.64103 9.64103 1.84615 9.84615 2.05128C10.4615 1.23077 11.0769 0.820513 11.6923 0.410256C12.5128 0 13.5385 0 14.5641 0Z" fill="#1A98D5"/>
</svg>
