<svg width="17" height="17" viewBox="0 0 17 17" fill="none" xmlns="http://www.w3.org/2000/svg">
<path fill-rule="evenodd" clip-rule="evenodd" d="M1.32812 5.04688C1.85938 5.04688 2.125 5.3125 2.39062 5.84375L3.98438 6.10938C4.25 5.84375 4.51562 5.3125 4.78125 5.04688L2.92188 3.1875C2.92188 3.45312 2.65625 3.45312 2.65625 3.45312C1.59375 3.45312 0.796875 2.65625 0.796875 1.59375C0.796875 0.796875 1.59375 0 2.65625 0C3.45312 0 4.25 0.796875 4.25 1.59375C4.25 1.85938 4.25 1.85938 4.25 2.125L6.10938 3.98438C6.64062 3.71875 7.70312 3.45312 8.5 3.45312L8.76562 2.125C8.5 1.85938 8.5 1.59375 8.5 1.32812C8.5 0.53125 9.03125 0 9.82812 0C10.3594 0 10.8906 0.53125 10.8906 1.32812C10.8906 1.85938 10.8906 2.125 10.3594 2.39062V3.71875C11.1562 3.98438 11.6875 4.51562 12.2188 5.04688L13.5469 4.25C13.5469 3.1875 14.3438 2.39062 15.1406 2.39062C16.2031 2.39062 17 3.1875 17 4.25C17 5.04688 16.2031 5.84375 15.1406 5.84375C14.875 5.84375 14.6094 5.84375 14.6094 5.84375L13.2812 6.64062C13.5469 7.17188 13.5469 7.70312 13.5469 8.5C13.5469 9.29688 13.2812 9.82812 13.0156 10.625H13.5469C13.8125 10.3594 14.3438 10.0938 14.875 10.0938C15.9375 10.0938 16.7344 11.1562 16.7344 12.2188C16.7344 13.5469 15.9375 14.3438 14.875 14.3438C13.5469 14.3438 12.75 13.5469 12.75 12.2188L12.2188 11.9531C11.1562 13.0156 9.82812 13.5469 8.5 13.5469C8.23438 13.5469 8.23438 13.5469 7.96875 13.5469V14.0781C8.23438 14.3438 8.5 14.6094 8.5 15.1406C8.5 16.2031 7.70312 16.7344 6.64062 16.7344C5.84375 16.7344 5.04688 16.2031 5.04688 15.1406C5.04688 14.3438 5.57812 13.8125 6.375 13.5469V13.0156C5.84375 12.75 5.04688 12.2188 4.78125 11.6875L3.45312 13.0156C3.45312 13.2812 3.45312 13.2812 3.45312 13.5469C3.45312 14.3438 2.65625 15.1406 1.85938 15.1406C0.796875 15.1406 0 14.3438 0 13.5469C0 12.4844 0.796875 11.6875 1.85938 11.6875C1.85938 11.6875 2.125 11.6875 2.125 11.9531L3.71875 10.3594C3.45312 9.5625 3.45312 9.03125 3.45312 8.5C3.45312 8.23438 3.45312 7.96875 3.45312 7.70312L2.125 7.4375C1.85938 7.70312 1.59375 7.70312 1.32812 7.70312C0.53125 7.70312 0 7.17188 0 6.375C0 5.57812 0.53125 5.04688 1.32812 5.04688ZM5.84375 8.5C6.375 8.5 6.90625 8.76562 6.90625 9.29688C6.90625 9.82812 6.375 10.0938 5.84375 10.0938C5.57812 10.0938 5.04688 9.82812 5.04688 9.29688C5.04688 8.76562 5.57812 8.5 5.84375 8.5ZM7.96875 4.25C8.76562 4.25 9.29688 4.78125 9.29688 5.57812C9.29688 6.10938 8.76562 6.90625 7.96875 6.90625C7.17188 6.90625 6.64062 6.10938 6.64062 5.57812C6.64062 4.78125 7.17188 4.25 7.96875 4.25ZM10.0938 8.5C11.1562 8.5 11.6875 9.29688 11.6875 10.0938C11.6875 11.1562 11.1562 11.6875 10.0938 11.6875C9.29688 11.6875 8.5 11.1562 8.5 10.0938C8.5 9.29688 9.29688 8.5 10.0938 8.5Z" fill="#1A98D5"/>
</svg>
