<svg width="19" height="18" viewBox="0 0 19 18" fill="none" xmlns="http://www.w3.org/2000/svg">
<path fill-rule="evenodd" clip-rule="evenodd" d="M14.1881 10.5149C10.4456 9.44555 7.77231 9.9802 5.09904 12.6535C5.81191 6.41584 12.7624 5.70297 19 10.6931C16.505 14.0792 13.1188 17.1089 6.52478 14.6139C5.99013 15.6832 5.45547 16.5743 4.92082 17.4653C4.7426 17.8218 4.38617 18 3.85151 17.8218C3.49508 17.6436 3.49508 17.2871 3.49508 16.9307C4.20795 15.505 5.45547 14.0792 6.52478 13.0099C6.703 13.0099 6.703 13.0099 6.703 13.0099C8.48518 11.4059 10.2674 10.5149 14.1881 10.5149ZM3.67329 3.92079C2.96042 5.52475 2.96042 7.48515 4.02973 10.5149C1.00003 9.26733 -0.960369 5.16832 4.02973 0C7.23765 3.74257 7.41587 7.12871 4.92082 9.9802C4.02973 8.19802 3.49508 6.05941 3.67329 3.92079Z" fill="#1A98D5"/>
</svg>
