<svg width="30" height="30" viewBox="0 0 30 30" fill="none" xmlns="http://www.w3.org/2000/svg">
<path d="M2.50001 29.537H27.5926C28.6665 29.537 29.537 28.6665 29.537 27.5926V2.50001C29.537 1.42612 28.6665 0.555569 27.5926 0.555569H2.50001C1.42612 0.555569 0.555569 1.42612 0.555569 2.50001V27.5926C0.555569 28.6665 1.42612 29.537 2.50001 29.537Z" fill="#FEFEFE"/>
<path opacity="0.3" d="M27.5926 30H2.40741C1.75926 30 1.2037 29.7222 0.740742 29.2593C0.277779 28.8889 1.90735e-06 28.2407 1.90735e-06 27.5926V2.40741C1.90735e-06 1.75926 0.277779 1.2037 0.740742 0.740742C1.2037 0.277779 1.75926 1.90735e-06 2.40741 1.90735e-06H27.5926C28.2407 1.90735e-06 28.8889 0.277779 29.2593 0.740742C29.7222 1.2037 30 1.75926 30 2.40741V27.5926C30 28.2407 29.7222 28.8889 29.2593 29.2593C28.8889 29.7222 28.2407 30 27.5926 30ZM18.2407 19.2593C18.6111 19.7222 18.6111 20.2778 18.2407 20.7407C17.7778 21.1111 17.2222 21.1111 16.7593 20.7407L11.7593 15.7407C11.3889 15.3704 11.3889 14.7222 11.7593 14.2593L16.7593 9.35185C17.2222 8.88889 17.7778 8.88889 18.2407 9.35185C18.6111 9.72222 18.6111 10.3704 18.2407 10.7407L13.8889 15L18.2407 19.2593ZM2.40741 28.9815H27.5926C27.963 28.9815 28.3333 28.7963 28.6111 28.6111C28.7963 28.3333 28.9815 27.963 28.9815 27.5926V2.40741C28.9815 2.03704 28.7963 1.66667 28.6111 1.48148C28.3333 1.2037 27.963 1.01852 27.5926 1.01852H2.40741C2.03704 1.01852 1.66667 1.2037 1.48148 1.48148H1.38889C1.2037 1.66667 1.01852 2.03704 1.01852 2.40741V27.5926C1.01852 27.963 1.2037 28.3333 1.38889 28.6111H1.48148C1.66667 28.7963 2.03704 28.9815 2.40741 28.9815Z" fill="#2B2A29"/>
</svg>
