<?xml version="1.0" encoding="UTF-8"?>
<!DOCTYPE svg PUBLIC "-//W3C//DTD SVG 1.1//EN" "http://www.w3.org/Graphics/SVG/1.1/DTD/svg11.dtd">
<!-- Creator: CorelDRAW X7 -->
<svg xmlns="http://www.w3.org/2000/svg" xml:space="preserve" width="17px" height="17px" version="1.1" style="shape-rendering:geometricPrecision; text-rendering:geometricPrecision; image-rendering:optimizeQuality; fill-rule:evenodd; clip-rule:evenodd"
viewBox="0 0 64 63"
 xmlns:xlink="http://www.w3.org/1999/xlink">
 <defs>
  <style type="text/css">
   <![CDATA[
    .fil0 {fill:#2B2A29}
   ]]>
  </style>
 </defs>
 <g id="Слой_x0020_1">
  <metadata id="CorelCorpID_0Corel-Layer"/>
  <path class="fil0" d="M5 19c2,0 3,1 4,3l6 1c1,-1 2,-3 3,-4l-7 -7c0,1 -1,1 -1,1 -4,0 -7,-3 -7,-7 0,-3 3,-6 7,-6 3,0 6,3 6,6 0,1 0,1 0,2l7 7c2,-1 6,-2 9,-2l0 0 1 -5c-1,-1 -1,-2 -1,-3 0,-3 2,-5 5,-5 2,0 4,2 4,5 0,2 0,3 -2,4l0 5c3,1 5,3 7,5l5 -3c0,0 0,0 0,0 0,-4 3,-7 6,-7 4,0 7,3 7,7 0,3 -3,6 -7,6 -1,0 -2,0 -2,0l-5 3c1,2 1,4 1,7 0,3 -1,5 -2,8l2 0c1,-1 3,-2 5,-2 4,0 7,4 7,8 0,5 -3,8 -7,8 -5,0 -8,-3 -8,-8 0,0 0,0 0,0l-2 -1c-4,4 -9,6 -14,6 -1,0 -1,0 -2,0l0 2c1,1 2,2 2,4 0,4 -3,6 -7,6 -3,0 -6,-2 -6,-6 0,-3 2,-5 5,-6l0 -2c-2,-1 -5,-3 -6,-5l-5 5c0,1 0,1 0,2 0,3 -3,6 -6,6 -4,0 -7,-3 -7,-6 0,-4 3,-7 7,-7 0,0 1,0 1,1l6 -6c-1,-3 -1,-5 -1,-7 0,-1 0,-2 0,-3l-5 -1c-1,1 -2,1 -3,1 -3,0 -5,-2 -5,-5 0,-3 2,-5 5,-5zm17 13c2,0 4,1 4,3 0,2 -2,3 -4,3 -1,0 -3,-1 -3,-3 0,-2 2,-3 3,-3zm8 -16c3,0 5,2 5,5 0,2 -2,5 -5,5 -3,0 -5,-3 -5,-5 0,-3 2,-5 5,-5zm8 16c4,0 6,3 6,6 0,4 -2,6 -6,6 -3,0 -6,-2 -6,-6 0,-3 3,-6 6,-6z"/>
 </g>
</svg>
