<?xml version="1.0" encoding="UTF-8"?>
<!DOCTYPE svg PUBLIC "-//W3C//DTD SVG 1.1//EN" "http://www.w3.org/Graphics/SVG/1.1/DTD/svg11.dtd">
<!-- Creator: CorelDRAW X7 -->
<svg xmlns="http://www.w3.org/2000/svg" xml:space="preserve" width="15px" height="15px" version="1.1" style="shape-rendering:geometricPrecision; text-rendering:geometricPrecision; image-rendering:optimizeQuality; fill-rule:evenodd; clip-rule:evenodd"
viewBox="0 0 167 168"
 xmlns:xlink="http://www.w3.org/1999/xlink">
 <defs>
  <style type="text/css">
   <![CDATA[
    .fil0 {fill:#2B2A29;fill-rule:nonzero}
   ]]>
  </style>
 </defs>
 <g id="Слой_x0020_1">
  <metadata id="CorelCorpID_0Corel-Layer"/>
  <path class="fil0" d="M123 109l40 40c5,5 5,11 0,16 -4,4 -11,4 -15,0l-41 -41c-11,8 -24,12 -39,12 -19,0 -36,-7 -48,-20l0 0 0 0 0 0c-12,-12 -20,-29 -20,-48 0,-19 8,-36 20,-48 12,-12 29,-20 48,-20 19,0 36,8 48,20 13,12 20,29 20,48 0,15 -5,29 -13,41zm-22 -74c-9,-8 -20,-13 -33,-13 -13,0 -24,5 -33,13 -8,9 -13,20 -13,33 0,13 5,25 13,33l0 0c9,8 20,13 33,13 13,0 24,-5 33,-13l0 0c8,-9 13,-20 13,-33 0,-13 -5,-24 -13,-33z"/>
 </g>
</svg>
