<?xml version="1.0" encoding="UTF-8"?>
<!DOCTYPE svg PUBLIC "-//W3C//DTD SVG 1.1//EN" "http://www.w3.org/Graphics/SVG/1.1/DTD/svg11.dtd">
<!-- Creator: CorelDRAW X7 -->
<svg xmlns="http://www.w3.org/2000/svg" xml:space="preserve" width="10px" height="10px" version="1.1" style="shape-rendering:geometricPrecision; text-rendering:geometricPrecision; image-rendering:optimizeQuality; fill-rule:evenodd; clip-rule:evenodd"
viewBox="0 0 29 29"
 xmlns:xlink="http://www.w3.org/1999/xlink">
 <defs>
  <style type="text/css">
   <![CDATA[
    .fil0 {fill:#2B2A29;fill-rule:nonzero}
   ]]>
  </style>
 </defs>
 <g id="Слой_x0020_1">
  <metadata id="CorelCorpID_0Corel-Layer"/>
  <path class="fil0" d="M0 0l6 0 0 6 -6 0 0 -6zm12 0l5 0 0 6 -5 0 0 -6zm11 0l6 0 0 6 -6 0 0 -6zm-23 23l6 0 0 6 -6 0 0 -6zm12 0l5 0 0 6 -5 0 0 -6zm11 0l6 0 0 6 -6 0 0 -6zm-23 -11l6 0 0 5 -6 0 0 -5zm12 0l5 0 0 5 -5 0 0 -5zm11 0l6 0 0 5 -6 0 0 -5z"/>
 </g>
</svg>
