<?xml version="1.0" encoding="UTF-8"?>
<!DOCTYPE svg PUBLIC "-//W3C//DTD SVG 1.1//EN" "http://www.w3.org/Graphics/SVG/1.1/DTD/svg11.dtd">
<!-- Creator: CorelDRAW X7 -->
<svg xmlns="http://www.w3.org/2000/svg" xml:space="preserve" width="14px" height="14px" version="1.1" style="shape-rendering:geometricPrecision; text-rendering:geometricPrecision; image-rendering:optimizeQuality; fill-rule:evenodd; clip-rule:evenodd"
viewBox="0 0 601 601"
 xmlns:xlink="http://www.w3.org/1999/xlink">
 <defs>
  <style type="text/css">
   <![CDATA[
    .fil2 {fill:#FEFEFE}
    .fil1 {fill:#40C351}
    .fil0 {fill:white}
   ]]>
  </style>
 </defs>
 <g id="Слой_x0020_1">
  <metadata id="CorelCorpID_0Corel-Layer"/>
  <g id="_2121558079920">
   <path class="fil0" d="M8 593l41 -150c-25,-44 -39,-94 -39,-145 0,-160 131,-290 292,-290 78,0 151,30 206,85 55,55 85,127 85,205 0,160 -131,290 -291,290 0,0 0,0 0,0l-1 0c-48,0 -96,-12 -139,-35l-154 40z"/>
   <path class="fil1" d="M8 601c-2,0 -4,-1 -6,-3 -2,-1 -2,-4 -2,-7l41 -147c-25,-45 -39,-95 -39,-146 1,-164 135,-298 300,-298 80,0 155,31 211,87 57,57 88,131 88,211 0,164 -135,298 -299,298 -49,0 -98,-12 -141,-35l-151 39c-1,1 -2,1 -2,1z"/>
   <path class="fil2" d="M82 519l87 -22 20 11c35,18 74,28 113,28 131,0 239,-107 239,-238 0,-64 -25,-123 -70,-168 -46,-45 -105,-70 -169,-70 -132,0 -239,106 -239,238 -1,40 10,81 30,116l12 22 -23 83z"/>
   <path class="fil1" d="M231 174c-6,-12 -11,-12 -17,-12 -4,0 -9,0 -14,0 -4,0 -12,2 -19,9 -7,7 -26,25 -26,60 0,36 27,70 30,75 4,5 51,81 125,110 61,24 74,19 87,18 13,-1 43,-18 49,-35 6,-17 6,-31 4,-34 -1,-3 -6,-5 -14,-9 -7,-3 -43,-21 -49,-23 -7,-3 -12,-4 -17,4 -5,7 -19,23 -23,28 -4,5 -8,5 -16,2 -7,-4 -30,-12 -58,-36 -22,-19 -36,-43 -41,-50 -4,-8 0,-12 4,-15 3,-3 7,-9 10,-13 4,-4 5,-7 8,-12 2,-5 1,-9 -1,-13 -2,-3 -16,-39 -22,-54z"/>
  </g>
 </g>
</svg>
