<svg width="12" height="16" viewBox="0 0 12 16" fill="none" xmlns="http://www.w3.org/2000/svg">
<g opacity="0.5" clip-path="url(#clip0_73_34)">
<path d="M0.923077 0.153809H10.6154C11.0769 0.153809 11.0769 0.153809 11.5385 0.615347L12 1.07689V10.7692C12 11.2307 11.5385 11.2307 11.5385 11.6923C11.0769 11.6923 11.0769 12.1538 10.6154 12.1538H4.61538L1.38462 15.3846C0.923077 15.8461 0.461538 15.8461 0 15.3846V14.923V1.07689C0 1.07689 0 0.615347 0.461538 0.615347C0.461538 0.153809 0.923077 0.153809 0.923077 0.153809ZM10.6154 1.53842H1.38462V13.0769L3.69231 10.7692H4.15385H10.6154V1.53842Z" fill="#2B2A29"/>
</g>
<defs>
<clipPath id="clip0_73_34">
<rect width="12" height="16" fill="white"/>
</clipPath>
</defs>
</svg>
