<?xml version="1.0" encoding="UTF-8"?>
<!DOCTYPE svg PUBLIC "-//W3C//DTD SVG 1.1//EN" "http://www.w3.org/Graphics/SVG/1.1/DTD/svg11.dtd">
<!-- Creator: CorelDRAW X7 -->
<svg xmlns="http://www.w3.org/2000/svg" xml:space="preserve" width="18px" height="18px" version="1.1" style="shape-rendering:geometricPrecision; text-rendering:geometricPrecision; image-rendering:optimizeQuality; fill-rule:evenodd; clip-rule:evenodd"
viewBox="0 0 101 101"
 xmlns:xlink="http://www.w3.org/1999/xlink">
 <defs>
  <style type="text/css">
   <![CDATA[
    .fil0 {fill:#2B2A29}
   ]]>
  </style>
 </defs>
 <g id="Слой_x0020_1">
  <metadata id="CorelCorpID_0Corel-Layer"/>
  <path class="fil0" d="M74 59c-21,-6 -36,-3 -51,12 4,-35 43,-39 78,-11 -14,19 -33,36 -70,22 -3,6 -6,11 -9,16 -1,2 -3,3 -6,2 -2,-1 -2,-3 -2,-5 4,-8 11,-16 17,-22l0 0c1,0 1,0 1,0 10,-9 20,-14 42,-14zm-59 -37c-4,9 -4,20 2,37 -17,-7 -28,-30 0,-59 18,21 19,40 5,56 -5,-10 -8,-22 -7,-34z"/>
 </g>
</svg>
