<svg xmlns="http://www.w3.org/2000/svg" xml:space="preserve" width="8px" height="6px" version="1.1" style="shape-rendering:geometricPrecision; text-rendering:geometricPrecision; image-rendering:optimizeQuality; fill-rule:evenodd; clip-rule:evenodd"
viewBox="0 0 40 30" fill="#cc1d24"
 xmlns:xlink="http://www.w3.org/1999/xlink">
  <path class="fil0" d="M1 10l0 0 21 0 -3 -8c0,-1 0,-2 1,-2 0,0 1,0 1,0l0 0 19 14c1,0 1,1 0,2 0,0 0,0 0,0l-19 14c-1,0 -2,0 -2,0 0,-1 0,-1 0,-2l3 -8 -21 0c0,0 -1,-1 -1,-1l0 0 0 -7c0,-1 1,-2 1,-2z"/>
</svg>
