<svg xmlns="http://www.w3.org/2000/svg" xml:space="preserve" width="15px" height="18px" version="1.1" 
viewBox="0 0 341 405" xmlns:xlink="http://www.w3.org/1999/xlink" fill="">
 <g id="Слой_x0020_1">
  <metadata id="CorelCorpID_0Corel-Layer"/>
  <path class="fil0" d="M171 0c34,0 62,28 62,62 0,35 -28,62 -62,62 -35,0 -63,-27 -63,-62 0,-34 28,-62 63,-62zm-93 187l185 0c43,0 78,35 78,78l0 140 -59 0 0 -96c0,-6 -5,-11 -12,-11l-20 0c-6,0 -11,5 -11,11l0 96 -137 0 0 -96c0,-6 -5,-11 -11,-11l-20 0c-6,0 -12,5 -12,11l0 96 -59 0 0 -140c0,-43 35,-78 78,-78z"/>
 </g>
</svg>
