<?xml version="1.0" encoding="UTF-8"?>
<!DOCTYPE svg PUBLIC "-//W3C//DTD SVG 1.1//EN" "http://www.w3.org/Graphics/SVG/1.1/DTD/svg11.dtd">
<!-- Creator: CorelDRAW X7 -->
<svg xmlns="http://www.w3.org/2000/svg" xml:space="preserve" width="19px" height="19px" version="1.1" style="shape-rendering:geometricPrecision; text-rendering:geometricPrecision; image-rendering:optimizeQuality; fill-rule:evenodd; clip-rule:evenodd"
viewBox="0 0 133 129"
 xmlns:xlink="http://www.w3.org/1999/xlink">
 <defs>
  <style type="text/css">
   <![CDATA[
    .fil0 {fill:#2B2A29;fill-rule:nonzero}
   ]]>
  </style>
 </defs>
 <g id="Слой_x0020_1">
  <metadata id="CorelCorpID_0Corel-Layer"/>
  <path class="fil0" d="M65 11l0 0 0 0 57 57c1,1 1,2 1,4 0,2 -2,5 -5,5l-19 0 -41 41 0 0 0 0 0 0c-3,3 -7,4 -11,4 -4,0 -7,-1 -10,-4 0,0 -1,0 -1,0l0 0 -32 -32 0 0 0 0 0 0c-3,-3 -4,-7 -4,-11 0,-4 1,-8 4,-11l0 0 50 -49 -4 -4c0,0 -1,0 -1,0 -1,0 -2,0 -3,1l0 0 0 0 -24 25c-2,2 -5,2 -8,0 -2,-2 -2,-6 0,-8l25 -24 0 0c2,-3 5,-5 8,-5 4,0 7,1 10,3 1,1 1,1 1,1l7 7zm67 103c0,2 1,3 1,5 0,6 -5,10 -11,10 -6,0 -10,-4 -10,-10 0,-2 0,-3 1,-5l0 0 9 -21 10 21 0 0zm-71 -92l-18 19 62 25 -44 -44zm-49 56c105,105 0,0 0,0z"/>
 </g>
</svg>
