<?xml version="1.0" encoding="UTF-8"?>
<!DOCTYPE svg PUBLIC "-//W3C//DTD SVG 1.1//EN" "http://www.w3.org/Graphics/SVG/1.1/DTD/svg11.dtd">
<!-- Creator: CorelDRAW X7 -->
<svg xmlns="http://www.w3.org/2000/svg" xml:space="preserve" width="218px" height="86px" version="1.1" style="shape-rendering:geometricPrecision; text-rendering:geometricPrecision; image-rendering:optimizeQuality; fill-rule:evenodd; clip-rule:evenodd"
viewBox="0 0 25092 9887"
 xmlns:xlink="http://www.w3.org/1999/xlink">
 <defs>
  <style type="text/css">
   <![CDATA[
    .fil1 {fill:#1A98D5}
    .fil0 {fill:#2E2E2E;fill-rule:nonzero}
   ]]>
  </style>
 </defs>
 <g id="Слой_x0020_1">
  <metadata id="CorelCorpID_0Corel-Layer"/>
  <path class="fil0" d="M12297 4752l-561 0 -32 0 -11 -31 -211 -554 -965 0 -202 554 -12 31 -32 0 -551 0 -68 0 25 -64 997 -2569 12 -30 32 0 550 0 31 0 12 29 1029 2569 26 65 -69 0zm-1019 -1113l-288 -769 -281 769 569 0zm1769 1210l5 36c4,28 11,52 19,70 8,16 17,28 27,36l0 0c19,14 44,24 74,32 33,8 73,12 120,12 61,0 114,-5 159,-14 43,-9 79,-21 106,-38 17,-10 31,-23 44,-39 14,-17 25,-37 34,-61l0 0c6,-17 11,-42 15,-76 3,-35 5,-80 5,-134l0 0 1 -142c-55,58 -116,104 -181,139 -100,55 -210,82 -330,82 -133,0 -253,-29 -359,-85 -106,-57 -197,-141 -274,-253 -61,-87 -106,-186 -136,-295 -30,-108 -45,-226 -45,-354 0,-161 20,-304 59,-427 39,-126 99,-232 179,-320 79,-87 169,-152 268,-196 100,-44 209,-66 327,-66 123,0 236,27 338,81l0 1c66,35 128,82 185,141l0 -137 0 -46 47 0 459 0 47 0 0 46 0 1670c0,111 -4,209 -13,293 -10,85 -24,157 -44,214l1 0c-19,57 -42,109 -70,155 -27,46 -59,86 -95,120 -36,34 -77,64 -125,90 -46,26 -98,48 -155,66l0 0c-58,19 -122,32 -194,42 -72,9 -150,13 -235,13 -161,0 -299,-14 -415,-42 -119,-29 -215,-73 -286,-131l0 0c-71,-59 -125,-126 -161,-201 -27,-57 -44,-118 -51,-183l650 -99zm-116 -1113c0,95 9,176 27,244 17,66 42,119 76,159l0 0c34,40 72,71 113,91 40,20 85,30 134,30 53,0 102,-11 146,-31 45,-21 85,-53 122,-95l1 0c37,-41 64,-94 83,-157 19,-65 29,-141 29,-229 0,-92 -9,-172 -28,-239 -18,-64 -44,-117 -80,-159l0 0c-35,-41 -74,-72 -118,-93l0 0c-44,-20 -93,-30 -147,-30 -52,0 -99,10 -141,30 -42,20 -80,50 -114,90l0 0c-34,41 -59,93 -77,156 -17,65 -26,143 -26,233zm2139 1016l-492 0 -47 0 0 -47 0 -1863 0 -46 47 0 456 0 47 0 0 46 0 115c10,-13 20,-25 29,-36 39,-44 76,-78 111,-100 36,-22 73,-38 113,-49 40,-11 81,-16 125,-16 61,0 120,8 178,25 58,17 115,41 171,74l2 2 -267 472c-16,-8 -32,-15 -47,-20 -33,-12 -65,-18 -96,-18 -30,0 -57,4 -82,12 -23,8 -45,20 -65,35l0 0c-19,15 -36,37 -52,66 -17,31 -32,69 -45,115 -13,47 -22,120 -29,221 -7,102 -10,233 -10,391l0 574 0 47 -47 0zm684 -1001c0,-86 10,-170 31,-253 21,-83 53,-164 95,-244 42,-81 94,-152 154,-214 60,-62 130,-114 208,-157 77,-42 159,-74 245,-95 86,-21 177,-32 272,-32 294,0 536,96 725,289 94,96 165,205 212,327 48,121 71,254 71,400 0,147 -24,281 -71,404 -48,123 -119,233 -214,330l-1 0c-95,98 -203,171 -323,219 -120,49 -252,73 -396,73 -89,0 -176,-10 -261,-30 -84,-20 -167,-50 -248,-91l0 0c-81,-41 -153,-91 -215,-151 -63,-60 -115,-129 -158,-208 -42,-78 -74,-165 -95,-260 -21,-95 -31,-197 -31,-307zm599 26c0,173 40,304 119,394 40,44 84,77 132,99 47,22 100,33 157,33 58,0 111,-11 158,-33 47,-22 91,-55 130,-99l0 0c39,-44 68,-99 88,-164 20,-66 30,-144 30,-233 0,-87 -10,-163 -30,-229 -20,-63 -49,-117 -88,-161l0 0c-39,-45 -83,-78 -130,-100 -47,-21 -100,-32 -158,-32 -57,0 -110,11 -157,32 -48,22 -92,55 -132,100 -39,44 -68,98 -88,162 -20,66 -31,143 -31,231zm-6669 3970l0 -2569 0 -47 47 0 1766 0 47 0 0 47 0 434 0 47 -47 0 -1199 0 0 516 1030 0 47 0 0 47 0 434 0 47 -47 0 -1030 0 0 1044 0 47 -47 0 -520 0 -47 0 0 -47zm1993 -954c0,-86 10,-170 31,-253 21,-83 53,-165 95,-244 42,-81 94,-152 154,-214 60,-62 130,-114 208,-157 77,-42 159,-74 245,-95 86,-21 177,-32 272,-32 294,0 536,96 725,289 94,96 165,205 213,327 47,121 70,254 70,400 0,146 -24,281 -71,404 -48,123 -119,233 -214,330l0 0c-96,97 -204,171 -324,219 -120,49 -252,73 -396,73 -89,0 -176,-10 -260,-30 -85,-20 -168,-51 -249,-91l0 0c-81,-41 -153,-91 -215,-151 -63,-60 -115,-129 -158,-208 -42,-78 -74,-165 -95,-260 -21,-95 -31,-197 -31,-307zm599 26c0,173 40,304 120,394 39,44 83,77 131,99 47,22 100,33 158,33 57,0 110,-11 157,-33 47,-22 91,-55 130,-99l0 0c39,-44 68,-99 88,-164 20,-66 30,-144 30,-233 0,-87 -10,-163 -30,-229 -20,-63 -49,-117 -88,-161l0 0c-39,-45 -83,-78 -130,-100 -47,-21 -100,-32 -157,-32 -58,0 -111,11 -158,32 -48,22 -92,55 -131,100 -40,44 -69,98 -89,162 -20,66 -31,143 -31,231zm2895 357l495 -75 43 -6 10 42c9,43 23,81 42,112 18,31 41,57 68,78l1 0c27,21 60,37 98,47 41,12 88,17 143,17 60,0 112,-5 156,-16 41,-10 76,-25 103,-44l0 0c16,-12 27,-26 35,-41l0 0c7,-16 11,-34 11,-54 0,-13 -2,-24 -6,-34l0 0c-3,-10 -9,-18 -15,-25 -9,-8 -23,-16 -45,-24 -25,-10 -57,-20 -97,-29l0 0c-200,-44 -364,-87 -491,-127 -130,-42 -224,-82 -281,-121l0 0c-80,-55 -141,-120 -181,-197 -41,-77 -61,-164 -61,-261 0,-88 18,-169 53,-243 34,-74 86,-141 155,-200 69,-60 156,-104 261,-134 103,-29 224,-43 361,-43 131,0 245,11 343,32l0 0c101,23 185,56 252,101l0 0c66,45 123,101 169,168 46,66 81,142 106,228l14 50 -51 9 -463 86 -42 8 -12 -42c-8,-31 -20,-59 -36,-82l-1 0c-15,-24 -35,-43 -58,-59 -23,-16 -51,-29 -85,-37 -36,-9 -78,-13 -127,-13 -62,0 -115,4 -159,13 -40,8 -72,19 -96,34 -12,8 -21,18 -26,28 -6,9 -8,20 -8,32 0,10 2,19 6,27 5,9 13,17 24,26l0 0c18,13 63,30 134,52 77,23 180,49 310,78 133,31 248,65 342,102 96,39 172,81 228,127l0 1c58,48 101,106 129,174 29,68 43,144 43,228 0,92 -19,179 -58,259l0 0c-39,79 -96,151 -173,217l0 0c-76,65 -170,115 -282,147 -110,32 -237,48 -381,48 -131,0 -248,-13 -353,-40 -105,-27 -198,-67 -277,-122 -78,-54 -144,-118 -195,-192 -51,-74 -89,-158 -114,-251l-13 -51 52 -8zm3281 571l0 -148c-13,13 -26,26 -40,38 -47,42 -100,78 -159,110l0 0c-59,31 -119,54 -181,70 -62,15 -126,23 -191,23 -133,0 -253,-29 -360,-88l0 0c-54,-30 -101,-66 -140,-108 -39,-43 -71,-92 -96,-146 -24,-54 -42,-117 -53,-190 -12,-72 -18,-153 -18,-242l0 -1182 0 -46 47 0 492 0 47 0 0 46 0 858c0,132 2,237 6,315 5,76 11,127 19,153l0 0c7,25 18,47 32,67 13,19 30,35 49,49l1 1c40,28 91,43 155,43 38,0 74,-5 106,-16 34,-10 65,-25 94,-45 30,-21 55,-43 75,-69 19,-24 34,-51 45,-81l0 0c11,-30 19,-86 25,-165 6,-82 9,-190 9,-323l0 -787 0 -46 47 0 492 0 47 0 0 46 0 1863 0 47 -47 0 -456 0 -47 0 0 -47zm2621 47l-492 0 -47 0 0 -47 0 -949c0,-100 -3,-181 -8,-245 -5,-60 -12,-103 -21,-129l0 0c-9,-25 -21,-47 -35,-66 -14,-19 -31,-35 -51,-49 -19,-13 -41,-23 -65,-30 -24,-7 -51,-10 -80,-10 -39,0 -75,5 -109,15 -34,10 -66,26 -96,46l-1 0c-29,21 -55,44 -75,71l0 0c-20,27 -36,57 -47,91l0 0c-12,35 -20,86 -26,154 -7,68 -10,155 -10,259l0 842 0 47 -47 0 -491 0 -47 0 0 -47 0 -1863 0 -46 47 0 456 0 46 0 0 46 0 150c65,-64 134,-115 209,-153 109,-55 230,-83 361,-83 57,0 112,5 165,16 54,10 104,26 153,46l0 1c48,21 91,45 128,72 38,27 70,58 95,92 26,33 47,68 65,106 17,37 31,77 41,119l0 0c10,41 17,90 22,147 4,56 7,121 7,194l0 1156 0 47 -47 0zm352 -47l0 -2198c14,2 28,2 42,2 259,0 476,-179 535,-420l8 0 0 47 0 1238 494 -562 14 -16 21 0 607 0 108 0 -74 78 -612 656 665 1151 40 71 -81 0 -531 0 -27 0 -14 -25 -438 -784 -172 184 0 578 0 47 -47 0 -491 0 -47 0 0 -47zm2588 -1950c111,0 215,23 311,70 65,30 125,71 182,122l0 -103 0 -47 47 0 492 0 47 0 0 47 0 1861 0 47 -47 0 -504 0 -47 0 0 -47 0 -112 -9 9c-41,44 -89,80 -145,109l0 -1c-54,28 -109,49 -164,63 -56,14 -113,20 -169,20 -57,0 -112,-5 -166,-17 -53,-12 -105,-30 -155,-53l-1 0c-50,-24 -97,-53 -142,-87 -43,-34 -84,-73 -122,-118l0 0c-37,-43 -70,-92 -99,-146 -30,-54 -55,-113 -77,-176l0 0c-21,-64 -37,-131 -47,-203 -11,-71 -16,-146 -16,-225 0,-82 5,-159 15,-231 11,-72 26,-140 48,-203l0 0c21,-64 46,-121 74,-174 29,-53 63,-101 100,-144l0 0c37,-43 78,-82 123,-114 44,-33 91,-60 143,-82l0 0c51,-22 103,-38 158,-49 55,-11 112,-16 170,-16zm-234 979c0,58 2,110 7,156 5,47 12,89 22,126 10,38 21,71 35,101 13,28 28,54 45,75l0 1c16,21 34,39 52,54 19,15 39,27 59,36l1 0c22,9 45,16 69,21 25,5 50,7 78,7 25,0 48,-3 71,-8 23,-5 45,-13 67,-23 21,-11 41,-24 60,-39 18,-16 36,-35 53,-56l0 0c16,-22 31,-46 44,-74 13,-27 25,-58 35,-92 10,-34 18,-70 23,-109 5,-39 8,-82 8,-129 0,-53 -3,-101 -8,-145 -5,-45 -12,-84 -22,-120 -9,-35 -21,-67 -34,-96 -14,-28 -28,-53 -45,-74l0 0c-16,-21 -33,-39 -52,-55 -19,-14 -39,-27 -60,-36 -23,-10 -45,-17 -69,-22 -23,-5 -48,-8 -75,-8 -26,0 -51,3 -74,8 -24,5 -47,13 -68,23 -21,10 -42,23 -61,38 -19,15 -37,33 -53,53l0 1c-17,20 -32,43 -45,69 -13,26 -25,55 -34,88 -10,32 -18,67 -22,104 -5,38 -7,80 -7,125z"/>
  <path class="fil1" d="M7063 6996c1076,-1843 955,-4515 -217,-6996 -741,1862 -4842,1886 -6097,3715 -1208,1760 -643,3354 -428,4374 887,-2186 2535,-3670 5061,-4343 -2510,1399 -3982,3648 -4718,6141l657 0 345 -1021c2095,338 4320,-27 5397,-1870z"/>
  <path class="fil1" d="M22800 5296l-416 0 -41 0 0 -42 0 -1632 0 -41 41 0 384 0 42 0 0 41 0 100c8,-11 17,-22 25,-31 34,-39 66,-68 97,-88 32,-19 65,-33 99,-43 35,-9 72,-14 110,-14 53,0 105,7 156,22 51,15 101,36 150,65l2 1 -234 414c-14,-7 -28,-13 -42,-17 -29,-11 -57,-16 -84,-16 -26,0 -50,4 -71,11 -21,6 -40,17 -58,30l0 0c-16,13 -31,33 -45,58 -15,27 -28,61 -39,101 -12,41 -20,105 -26,194 -6,89 -9,203 -9,342l0 503 0 42 -41 0zm1827 -28l0 -163c-17,19 -36,38 -56,56 -41,36 -88,68 -139,96l0 0c-51,27 -104,48 -159,61 -54,14 -110,21 -167,21 -58,0 -113,-7 -165,-20 -53,-12 -103,-32 -149,-58l0 0c-47,-25 -88,-57 -122,-94 -34,-36 -62,-79 -83,-126 -21,-47 -37,-102 -47,-166 -10,-63 -16,-135 -16,-214l0 -1052 0 -30 30 0 438 0 30 0 0 30 0 764c0,117 2,210 5,281 4,68 10,115 18,139l0 0c7,24 17,45 30,63 13,18 28,34 47,47l0 0c19,14 40,24 64,30 24,7 52,11 82,11 35,0 67,-5 98,-14 31,-10 60,-24 87,-43 27,-18 50,-40 69,-63 18,-23 32,-48 42,-76l0 0c10,-28 18,-78 23,-150 6,-74 8,-170 8,-288l0 -701 0 -30 30 0 438 0 29 0 0 30 0 1659 0 29 -29 0 -406 0 -30 0 0 -29z"/>
  <path class="fil0" d="M14419 7794l-491 0 -47 0 0 -47 0 -1863 0 -47 47 0 455 0 47 0 0 47 0 115c10,-13 20,-25 30,-36 38,-44 75,-78 110,-100 36,-22 74,-38 113,-49 40,-11 82,-16 126,-16 60,0 119,8 178,25 58,17 115,41 170,74l2 2 -266 472c-16,-8 -32,-15 -48,-20 -33,-12 -65,-18 -96,-18 -30,0 -57,4 -81,12 -24,8 -46,19 -66,35l0 0c-18,15 -36,37 -52,66 -17,31 -32,69 -44,115 -13,47 -23,120 -30,221 -6,102 -10,232 -10,391l0 574 0 47 -47 0z"/>
  <path class="fil1" d="M21467 4671c182,0 330,148 330,330 0,182 -148,330 -330,330 -182,0 -330,-148 -330,-330 0,-182 148,-330 330,-330z"/>
 </g>
</svg>
