<?xml version="1.0" encoding="UTF-8"?>
<!DOCTYPE svg PUBLIC "-//W3C//DTD SVG 1.1//EN" "http://www.w3.org/Graphics/SVG/1.1/DTD/svg11.dtd">
<!-- Creator: CorelDRAW X7 -->
<svg xmlns="http://www.w3.org/2000/svg" xml:space="preserve" width="150px" height="150px" version="1.1" style="background-color: #ffffff; " 
viewBox="0 0 3463 3464"
 xmlns:xlink="http://www.w3.org/1999/xlink">
 <defs>
  <style type="text/css">
   <![CDATA[
    .fil0 {fill:#2B2A29;}
   ]]>
  </style>
 </defs>
 <g id="Слой_x0020_1">
  <metadata id="CorelCorpID_0Corel-Layer"/>
  <g id="_2242530573968">
   <path class="fil0" d="M557 1875c0,-19 4,-36 18,-51 36,-41 126,-20 114,62 -2,11 -10,26 -17,32 -25,25 -73,29 -102,-6 -6,-9 -13,-23 -13,-37zm-416 -135c0,-20 0,-27 12,-46 1,-2 2,-3 3,-5 26,-32 79,-29 101,-5 57,63 -26,154 -93,99 -8,-6 -23,-31 -23,-43zm0 -281c0,-30 16,-55 39,-65 7,-3 18,-5 27,-5 40,-1 69,29 69,70 0,40 -49,80 -98,56 -19,-9 -37,-34 -37,-56zm-141 -284l0 976c0,22 7,33 19,45 18,19 34,21 61,21 18,0 36,-14 45,-24 5,-7 9,-14 12,-23 9,-24 -4,-52 32,-77 16,-11 36,-14 57,-14 36,0 131,-7 158,13 42,31 20,60 43,97 23,38 91,38 115,2 15,-23 9,-28 16,-56 10,-43 43,-56 84,-56 54,0 238,-5 280,5 9,2 8,2 15,7 8,6 16,13 22,22 23,39 -4,75 54,101 51,23 185,-31 224,40 12,21 5,50 19,70 25,37 77,45 110,12 15,-15 18,-20 21,-47 4,-25 4,-34 20,-49 39,-39 114,-19 115,46 0,35 30,72 66,72l287 0c13,0 29,-8 36,-14l19 -19c16,-22 8,-57 24,-79 9,-12 -8,9 2,-3 4,-4 2,-1 5,-4 26,-25 48,-14 76,-26 64,-27 52,-115 -10,-134 -21,-7 -414,-3 -480,-3 -56,0 -117,15 -150,-32 -16,-25 -4,-63 -33,-88 -28,-24 -73,-23 -99,4 -26,25 -13,63 -36,93 -21,28 -65,29 -92,11 -39,-26 -14,-71 -49,-105 -23,-23 -38,-20 -82,-20 -55,0 -139,17 -167,-40 -12,-26 -4,-56 14,-75 6,-8 20,-15 31,-19 18,-5 24,1 44,-8 57,-23 56,-103 2,-130 -26,-12 -51,-1 -76,-25 -28,-28 -14,-42 -26,-76 -8,-21 -34,-44 -62,-44l-146 0c-27,0 -50,19 -60,42 -15,33 -2,63 -40,87 -5,4 -10,5 -17,8 -15,4 -26,3 -42,-2 -46,-17 -54,-79 -22,-112 29,-30 61,-6 97,-41 17,-18 15,-20 20,-49 4,-28 15,-49 38,-61 29,-14 50,2 78,-27 44,-44 21,-121 -49,-120 -43,0 -149,12 -181,-17 -14,-13 -19,-21 -23,-44 -5,-22 -1,-34 -16,-50 -22,-26 -35,-27 -67,-27 -37,0 -60,37 -60,72 -1,26 -17,48 -40,59 -8,4 -17,5 -27,5 -19,0 -34,-6 -47,-17 -31,-28 -12,-63 -37,-95 -19,-23 -42,-24 -70,-24 -29,0 -55,38 -55,66z"/>
   <path class="fil0" d="M2355 2677l0 -231c0,-45 18,-88 66,-88l284 0c43,0 66,39 66,82l0 243c0,60 -29,88 -88,88l-243 0c-65,0 -85,-37 -85,-94zm-61 -601c-47,0 -78,26 -77,75 0,50 9,118 -8,163 -21,53 -81,28 -112,59 -19,20 -26,53 -15,79 8,21 24,36 48,42 25,6 61,-1 79,42 7,17 8,28 3,45 -20,67 -76,33 -113,69 -28,28 -23,45 -23,96 0,53 19,145 -51,159 -10,2 -16,3 -26,4 -28,4 -61,30 -61,61l0 157c0,29 34,60 64,60 92,0 67,-72 87,-103 30,-48 58,-22 95,-45 45,-26 23,-63 46,-98 17,-25 42,-32 75,-32 85,0 650,-5 686,4l25 10c8,6 12,10 18,18 17,24 8,58 29,84 29,37 83,28 110,-3 0,0 4,-5 4,-5 2,-3 3,-5 4,-9 7,-17 5,-44 14,-61 31,-55 79,-18 118,-64 7,-9 12,-24 12,-40l0 -143c0,-37 -29,-69 -66,-69l-146 0c-18,0 -33,9 -44,19l-3 3c-30,30 -9,70 -45,101 -21,18 -52,19 -78,5 -24,-13 -34,-40 -34,-76l0 -105c0,-89 64,-82 124,-82 70,0 140,-1 209,0 32,0 57,-6 73,-33 10,-16 8,-19 12,-40 4,-31 15,-50 44,-61 28,-12 50,2 76,-28 7,-8 16,-23 16,-37l0 -160c0,-16 -11,-33 -20,-41 -24,-22 -59,-26 -87,-8 -58,37 -4,106 -89,126 -12,2 -28,2 -36,5 -21,8 -34,24 -42,44 -11,26 3,36 -20,66 -37,50 -119,18 -120,-43 0,-31 6,-138 -5,-165 -9,-19 -24,-34 -44,-42 -31,-11 -128,1 -168,-3 -38,-3 -55,-33 -60,-67 -4,-26 -8,-43 -30,-58 -23,-15 -61,-18 -82,1 -10,9 -18,16 -24,29 -8,21 -4,39 -13,60 -5,9 -6,9 -13,16 -27,27 -45,13 -76,26 -12,5 -20,13 -29,23 -8,10 -11,23 -13,39 -4,28 -11,51 -39,63 -12,6 -25,9 -38,6 -64,-13 -51,-55 -63,-91 -7,-22 -33,-47 -58,-47z"/>
   <path class="fil0" d="M2076 1172l0 149c0,24 21,52 42,61 27,11 79,-1 94,57 4,14 3,33 8,44 10,22 32,42 63,42l149 0c20,0 38,-13 47,-24 30,-38 0,-67 44,-100 28,-21 114,-14 160,-14 19,0 39,1 53,10 1,1 10,4 21,20 15,22 14,55 14,92 0,69 0,139 0,209 0,28 -2,53 31,74 30,20 84,1 101,56 4,12 5,32 8,45 12,45 78,66 113,31 39,-39 25,-70 25,-154 0,-31 -5,-71 27,-92 49,-33 177,0 214,-22 68,-40 0,-116 107,-130 24,-4 30,-4 43,-18 26,-26 23,-30 23,-63 0,-27 -23,-47 -44,-56 -28,-11 -77,3 -91,-60 -2,-13 -3,-31 -8,-42 -26,-61 -134,-55 -135,31 -1,13 -3,17 -7,27 -3,5 -10,15 -14,19 -13,13 -30,20 -48,19 -37,0 -66,-29 -67,-67 0,-38 -28,-69 -68,-69 -60,-1 -230,3 -273,0 -44,-4 -67,-21 -73,-63 -3,-22 -4,-36 -18,-51 -11,-12 -23,-24 -45,-24l-162 0c-16,0 -31,15 -40,24 -15,16 -13,23 -17,49 -4,23 -8,31 -21,45 -29,29 -100,30 -113,-43 -5,-25 0,-32 -17,-50 -26,-28 -33,-25 -65,-25 -12,0 -16,2 -24,7 -19,9 -37,32 -37,56z"/>
   <path class="fil0" d="M141 635l0 -298c0,-40 22,-93 49,-122 24,-28 32,-33 68,-53 14,-8 57,-21 78,-21l298 0c23,0 62,12 77,19 10,5 22,13 31,19l28 22c31,31 60,91 60,136l0 298c0,44 -29,104 -60,135 -30,30 -92,60 -136,60l-298 0c-45,0 -96,-24 -129,-55l-8 -8c-1,-1 -1,-1 -2,-2 -18,-19 -22,-26 -36,-52 -8,-14 -20,-57 -20,-78zm-141 -367l0 430c0,112 64,201 160,248 31,15 67,25 113,25l430 0c42,0 80,-11 108,-25 28,-14 47,-25 69,-46l14 -13c2,-2 3,-3 4,-5 22,-23 32,-40 47,-69 15,-29 26,-66 26,-109l0 -436c0,-54 -21,-112 -49,-150 -52,-70 -126,-117 -219,-117l-436 0c-80,0 -153,38 -203,97 -16,19 -27,38 -38,61 -15,29 -26,66 -26,109z"/>
   <path class="fil0" d="M3127 830l-298 0c-21,0 -58,-10 -77,-19 -35,-18 -43,-27 -70,-54 -18,-19 -39,-66 -45,-93 -5,-25 -5,-332 0,-356 6,-27 27,-75 45,-93 28,-29 59,-55 100,-65 16,-4 28,-9 47,-9l298 0c73,0 146,55 177,120l14 42c1,6 3,17 4,23 6,64 3,198 3,267 0,32 -4,71 -13,95 -19,50 -49,93 -99,118 -21,11 -57,24 -86,24zm-635 -565l0 441c0,64 22,102 51,148 25,40 69,73 111,93 15,7 32,12 49,17 17,5 42,7 62,7 65,0 451,5 485,-6 28,-9 40,-10 68,-26 10,-5 12,-7 21,-12 21,-13 23,-18 37,-29l30 -33c27,-35 57,-97 57,-139l0 -480c0,-12 -8,-44 -11,-53l-18 -45c-6,-11 -17,-28 -25,-38 -20,-24 -40,-46 -67,-63 -49,-31 -88,-46 -149,-46l-428 0c-44,0 -78,8 -109,23 -18,8 -27,13 -42,24 -7,5 -13,8 -20,13 -13,10 -41,40 -49,53 -3,4 -3,5 -6,10 -19,25 -29,51 -38,81 -4,12 -9,45 -9,60z"/>
   <path class="fil0" d="M141 3127l0 -298c0,-21 10,-58 19,-77l26 -40c9,-11 31,-33 44,-42 17,-11 36,-20 56,-26 37,-11 10,-6 48,-8 45,-2 296,-6 329,1 7,2 16,5 21,7 58,16 101,57 126,108l11 30c4,16 9,28 9,47l0 303c0,46 -36,114 -72,141l-30 22c-13,7 -23,12 -38,17 -24,10 -68,13 -94,13 -81,0 -194,3 -270,-3 -30,-2 -75,-19 -98,-37 -6,-5 -10,-8 -16,-12 -32,-24 -71,-90 -71,-146zm-141 -361l0 430c0,19 2,41 7,57 5,16 9,33 16,47 3,7 6,15 10,20 4,9 7,12 12,21 12,19 29,37 45,51 39,36 107,71 155,71l480 0c31,0 70,-17 97,-30 25,-11 46,-29 66,-47 0,-1 1,-1 1,-2 0,0 1,-1 1,-1l5 -6c18,-19 28,-31 41,-53 20,-34 35,-84 35,-128 0,-71 5,-449 -6,-490 -14,-50 -36,-94 -72,-130 -24,-24 -47,-41 -79,-56 -33,-15 -71,-27 -108,-27l-441 0c-14,0 -48,5 -58,8 -8,3 -18,5 -25,8l-24 10c-18,8 -48,27 -63,41 -1,0 -1,1 -2,1l-22 22c-2,2 -2,2 -4,4l-31 44c-24,40 -36,86 -36,135z"/>
   <path class="fil0" d="M1820 1881c-24,0 -33,-8 -59,-27 -22,-16 -59,-34 -74,-56 5,-17 60,-64 81,-84 2,-2 6,-6 7,-7l7 -7c7,-7 10,-8 13,-18 -17,-9 -51,21 -65,31l-56 38c-47,33 -53,24 -98,13 -15,-4 -25,-8 -32,-18 11,-12 14,-11 25,-16 3,-1 6,-3 6,-3l209 -89c8,-3 85,-38 85,-16 0,23 -2,50 -6,71 -2,11 -4,18 -5,33 -1,12 -4,21 -6,33 -2,9 -3,23 -5,33 -4,19 -11,89 -27,89zm-392 -177c0,66 -2,86 24,150l18 35c11,19 37,52 53,65 43,35 33,31 86,57 67,32 124,30 193,18 19,-3 38,-12 56,-19 33,-14 66,-39 89,-62 34,-35 55,-69 72,-113 27,-70 24,-157 -7,-224 -9,-19 -14,-29 -25,-46 -11,-17 -20,-26 -32,-40l-37 -35c-8,-5 -14,-9 -21,-14 -15,-11 -31,-18 -47,-25 -8,-4 -17,-6 -27,-9 -67,-26 -166,-15 -227,17l-70 49c-19,16 -33,35 -48,56 -15,20 -26,44 -34,68l-11 41c-3,11 -5,18 -5,31z"/>
   <path class="fil0" d="M1108 61l0 14c0,38 32,66 69,66 14,0 18,2 28,6 6,3 14,8 20,13 41,37 16,115 -45,116 -77,2 -96,93 -40,132 19,12 46,8 68,17 17,8 33,27 36,50 4,35 2,40 24,61 37,37 82,2 110,61 11,23 1,47 18,67 3,4 18,19 21,21 15,9 43,14 60,7 14,-5 30,-15 38,-29 13,-24 10,-40 10,-75 0,-88 -18,-170 85,-171 28,-1 57,0 86,0 35,0 51,4 75,-10 39,-23 50,-96 -10,-124 -26,-13 -47,2 -76,-26 -25,-24 -18,-59 -26,-77 -38,-86 -192,-8 -251,-60 -24,-22 -17,-56 -26,-76 -9,-23 -30,-43 -61,-43l-152 0c-29,0 -61,31 -61,60z"/>
   <path class="fil0" d="M1246 2975c0,78 67,71 84,76 25,6 45,26 52,50 6,18 -1,24 8,45 23,54 103,57 130,1 13,-28 -1,-49 24,-76 32,-36 69,-7 103,-45 18,-21 16,-36 16,-62 0,-15 -14,-28 -22,-36 -30,-31 -60,-12 -86,-32 -12,-9 -21,-19 -25,-36 -5,-17 -5,-27 1,-46 5,-14 18,-26 29,-32 20,-13 50,-7 71,-20l13 -12c36,-38 2,-65 47,-102 6,-5 11,-8 20,-11 31,-8 64,3 79,31 16,28 -1,103 85,103 41,0 66,-40 66,-60l0 -152c0,-35 -32,-66 -66,-66l-287 0c-29,0 -50,22 -60,42 -11,24 2,78 -57,94 -29,8 -40,-7 -74,31 -28,31 -5,152 -14,193 -13,61 -71,51 -94,60 -22,8 -43,33 -43,62z"/>
   <path class="fil0" d="M1938 64l0 427c0,30 28,60 53,63 34,5 60,4 78,41 14,29 -5,50 34,85 43,38 114,-20 114,123 0,32 -3,249 2,262 5,13 15,27 27,34 29,17 67,15 90,-9 7,-7 19,-20 19,-34l0 -452c0,-7 -12,-26 -23,-35 -29,-23 -56,-7 -86,-30 -49,-36 -9,-88 -64,-115 -25,-13 -20,-4 -47,-11 -16,-3 -28,-9 -39,-22 -21,-28 -17,-62 -17,-101 0,-35 2,-217 -1,-236 -9,-53 -81,-71 -118,-35 -11,10 -22,26 -22,45z"/>
   <path class="fil0" d="M276 411l0 152c0,20 14,60 25,74 4,4 12,14 16,17 3,4 13,12 17,16 14,11 54,25 74,25 34,0 155,4 181,-4 23,-7 37,-12 54,-28 3,-2 3,-1 5,-3 16,-15 24,-26 33,-45 8,-15 14,-36 14,-55 0,-34 3,-152 -4,-178 -5,-15 -12,-33 -21,-46 -1,-1 -5,-7 -7,-9l-5 -6c-1,0 -1,-1 -2,-1 -25,-26 -59,-44 -96,-44 -34,0 -152,-3 -178,4 -28,9 -45,18 -65,37 -25,25 -41,58 -41,94z"/>
   <path class="fil0" d="M276 2901c0,55 -7,152 8,196l18 32c15,21 28,32 53,46 37,20 156,12 207,12 33,0 68,-16 91,-39 21,-21 42,-60 42,-87l0 -160c0,-66 -70,-130 -119,-130l-182 0c-43,0 -118,61 -118,130z"/>
   <path class="fil0" d="M2771 395l0 182c0,13 9,33 15,46 12,24 40,48 64,60 11,5 36,12 51,12l151 0c72,0 135,-63 135,-135l0 -149c0,-71 -63,-135 -135,-135l-151 0c-64,0 -130,66 -130,119z"/>
   <path class="fil0" d="M1384 897l0 151c0,13 12,34 23,44 56,53 235,-41 254,84 3,18 -1,30 19,51 46,49 123,10 123,-44l0 -286c0,-58 -89,-102 -135,-28 -14,24 3,68 -41,91 -27,13 -64,11 -84,-13 -29,-36 -6,-65 -37,-95 -47,-47 -122,-10 -122,45z"/>
   <path class="fil0" d="M830 1451c0,26 10,52 34,65 29,16 122,9 162,9 58,1 83,31 82,88l0 127c3,54 74,88 120,42 7,-7 21,-29 21,-42l0 -289c0,-25 -21,-52 -42,-61 -27,-11 -79,1 -94,-57 -5,-17 0,-86 -76,-86 -30,0 -52,19 -62,40 -11,22 1,48 -26,76 -26,27 -43,14 -75,27 -21,7 -44,33 -44,61z"/>
   <path class="fil0" d="M2630 3251c0,27 9,50 32,64 11,7 17,10 32,10 52,3 153,0 209,0 63,0 109,-6 134,35 11,20 6,44 16,66 6,14 31,37 49,37 30,0 44,4 67,-21 9,-11 18,-24 18,-42l0 -149c0,-12 -6,-30 -12,-37 -5,-5 -2,-2 -6,-6 0,0 -1,-1 -1,-1l-3 -3c-29,-28 -48,-11 -80,-27l-7 -4c-14,-11 -21,-22 -27,-40 -7,-24 5,-38 -24,-67 0,0 -1,-1 -1,-1 -4,-4 -1,-1 -4,-4 -24,-21 -68,-20 -95,7 -35,35 -1,83 -60,111 -13,5 -12,6 -30,6 -32,0 -138,-6 -163,5l-11 6c0,0 -1,1 -1,1l-24 26c-3,7 -8,17 -8,28z"/>
   <path class="fil0" d="M1108 3391c0,44 29,72 56,72l306 0c17,0 55,-26 55,-66 0,-75 -65,-71 -82,-75 -21,-5 -30,-11 -42,-27 -6,-7 -9,-13 -11,-22 -3,-18 -3,-30 -8,-45 -14,-38 -64,-58 -107,-31 -10,7 -19,18 -23,29 -14,31 -1,49 -26,77 -3,3 -10,8 -14,11 -27,16 -104,1 -104,77z"/>
   <path class="fil0" d="M1663 3380c0,26 -2,44 18,65 6,6 26,18 37,18l306 0c15,0 29,-14 38,-23 29,-29 21,-89 -23,-110 -13,-6 -27,-4 -42,-8 -64,-15 -50,-65 -61,-94 -21,-56 -107,-59 -130,-2 -12,29 0,77 -55,94 -19,6 -50,0 -73,27 -5,6 -15,24 -15,33z"/>
   <path class="fil0" d="M2076 1589l0 148c0,32 34,67 66,67l152 0c23,0 61,-32 61,-56 0,-25 3,-42 -16,-64 -6,-6 -20,-17 -30,-19 -22,-7 -79,2 -90,-63 -2,-16 -1,-28 -8,-41 -40,-71 -135,-34 -135,28z"/>
   <path class="fil0" d="M1938 756l0 152c0,81 141,88 141,-3l0 -146c0,-37 -33,-66 -64,-66l-13 0c-32,0 -64,32 -64,63z"/>
   <path class="fil0" d="M1108 897c0,33 -5,150 6,173 5,12 16,25 27,31 51,28 108,-13 108,-53l0 -151c0,-11 -3,-18 -7,-27 -28,-62 -134,-47 -134,27z"/>
   <path class="fil0" d="M1246 1175l0 149c0,35 39,63 61,63 24,0 42,-1 60,-20 7,-7 20,-28 20,-40l0 -155c0,-18 -9,-32 -19,-42 -41,-43 -122,-19 -122,45z"/>
   <path class="fil0" d="M692 1172c0,30 12,58 40,70 9,4 15,7 26,7l152 0c20,0 61,-26 61,-63l0 -17c0,-29 -32,-60 -61,-60l-157 0c-30,0 -61,33 -61,63z"/>
   <path class="fil0" d="M2217 56l0 168c0,21 31,55 63,55 22,0 36,-1 52,-17 8,-9 23,-23 23,-38l0 -174c0,-2 -7,-16 -9,-19 -21,-35 -77,-42 -108,-12 -8,8 -21,22 -21,37z"/>
   <path class="fil0" d="M2355 3391c0,21 2,36 16,50l7 7c8,6 21,15 32,15l168 0c19,0 55,-30 55,-63 0,-22 -1,-36 -17,-52 -9,-8 -23,-23 -38,-23l-168 0c-20,0 -55,27 -55,66z"/>
   <path class="fil0" d="M2492 2556l0 14c0,31 32,63 64,63l14 0c31,0 63,-32 63,-63l0 -14c0,-31 -32,-63 -63,-63l-14 0c-32,0 -64,32 -64,63z"/>
   <path class="fil0" d="M1246 756l0 14c0,31 32,63 64,63 22,0 37,-1 56,-18 36,-34 31,-122 -56,-122 -32,0 -64,32 -64,63z"/>
   <path class="fil0" d="M2492 1864c0,23 3,40 20,58 36,35 121,27 121,-58 0,-57 -78,-84 -119,-45 -10,10 -22,27 -22,45z"/>
   <path class="fil0" d="M2076 2005c0,23 5,37 21,54l8 8c39,30 112,4 112,-48 0,-24 1,-41 -20,-60 -51,-48 -121,-4 -121,46z"/>
   <path class="fil0" d="M830 2278l0 14c0,52 72,91 121,46 24,-23 28,-72 2,-98 -25,-26 -30,-23 -62,-23 -33,0 -61,39 -61,61z"/>
   <path class="fil0" d="M3047 1172c0,15 0,24 5,36 5,11 14,20 23,27 20,17 47,18 72,7 11,-4 29,-21 34,-32 22,-50 -14,-101 -54,-101l-20 0c-30,0 -60,33 -60,63z"/>
   <path class="fil0" d="M1663 56c0,26 -4,44 21,67 67,59 160,-34 101,-101 -24,-26 -72,-31 -101,-3 -1,0 -2,1 -2,1 -9,8 -19,24 -19,36z"/>
   <path class="fil0" d="M3325 1718c0,28 -3,44 20,66 50,47 118,2 118,-41 0,-25 1,-42 -18,-62 -42,-41 -120,-10 -120,37z"/>
   <path class="fil0" d="M1663 610c0,26 -4,44 21,67 60,53 143,-16 113,-81 -22,-49 -86,-57 -120,-16 -3,4 -4,4 -6,8 -3,5 -8,14 -8,22z"/>
   <path class="fil0" d="M1522 759c0,17 0,18 7,34 12,28 41,40 70,40 31,0 64,-30 64,-60 0,-30 3,-38 -22,-62 -35,-34 -94,-19 -112,22 -4,8 -7,15 -7,26z"/>
   <path class="fil0" d="M1246 2556l0 14c0,31 32,63 64,63 21,0 39,-1 56,-18 38,-38 29,-122 -59,-122 -13,0 -34,13 -41,20 -9,8 -20,26 -20,43z"/>
   <path class="fil0" d="M1108 3113c0,26 3,36 19,53 28,30 75,30 105,-4 57,-61 -35,-159 -104,-95 -12,11 -20,24 -20,46z"/>
   <path class="fil0" d="M138 2280c0,74 75,101 119,56 17,-17 21,-23 21,-53 0,-21 -6,-32 -17,-43 -47,-51 -123,-13 -123,40z"/>
   <path class="fil0" d="M1522 1313c0,46 30,74 77,74 30,0 64,-30 64,-60 0,-30 3,-39 -23,-63 -26,-24 -68,-24 -95,3 -13,12 -23,25 -23,46z"/>
   <path class="fil0" d="M1108 2697c0,84 88,88 120,56 48,-48 7,-122 -45,-122 -42,0 -75,26 -75,66z"/>
   <path class="fil0" d="M2355 2005c0,89 103,94 132,38 30,-58 -26,-104 -52,-104 -26,0 -42,1 -62,21 -10,10 -18,25 -18,45z"/>
   <path class="fil0" d="M3325 1158l0 36c0,24 31,55 75,55 29,0 63,-31 63,-60 0,-25 3,-27 -7,-45l-12 -16c-30,-31 -88,-26 -110,12 -2,3 -9,16 -9,18z"/>
   <path class="fil0" d="M2492 1589c0,43 28,74 61,74 30,0 38,3 62,-21 25,-27 26,-69 -3,-98 -23,-23 -50,-28 -79,-15 -12,5 -29,22 -34,33 -3,7 -7,18 -7,27z"/>
   <path class="fil0" d="M3325 2548c0,41 -3,42 23,68 41,41 115,3 115,-38 0,-33 4,-42 -21,-67 -47,-45 -117,-1 -117,37z"/>
   <path class="fil0" d="M2217 3245c0,25 -3,35 14,55l15 15c3,2 8,4 11,6 47,17 98,-14 98,-51l0 -30c0,-25 -37,-55 -64,-55 -22,0 -37,3 -54,20 -9,8 -20,24 -20,40z"/>
   <path class="fil0" d="M3325 3383c0,27 -2,41 19,62 40,40 119,13 119,-40 0,-24 2,-39 -17,-60 -37,-40 -121,-18 -121,38z"/>
   <path class="fil0" d="M3325 2964c0,28 -4,45 21,67 29,25 69,25 97,-1 22,-21 20,-40 20,-66 0,-18 -27,-55 -66,-55 -23,0 -38,4 -52,18 0,0 -1,1 -1,1l-11 14c-3,5 -8,15 -8,22z"/>
  </g>
 </g>
</svg>
