<?xml version="1.0" encoding="UTF-8"?>
<!DOCTYPE svg PUBLIC "-//W3C//DTD SVG 1.1//EN" "http://www.w3.org/Graphics/SVG/1.1/DTD/svg11.dtd">
<!-- Creator: CorelDRAW X7 -->
<svg xmlns="http://www.w3.org/2000/svg" xml:space="preserve" width="14px" height="16px" version="1.1" style="shape-rendering:geometricPrecision; text-rendering:geometricPrecision; image-rendering:optimizeQuality; fill-rule:evenodd; clip-rule:evenodd"
viewBox="0 0 128 145"
 xmlns:xlink="http://www.w3.org/1999/xlink">
 <defs>
  <style type="text/css">
   <![CDATA[
    .fil0 {fill:#2B2A29;fill-rule:nonzero}
   ]]>
  </style>
 </defs>
 <g id="Слой_x0020_1">
  <metadata id="CorelCorpID_0Corel-Layer"/>
  <path class="fil0" d="M56 80l26 15c5,-4 11,-6 18,-6 8,0 15,3 20,8l0 0c5,5 8,12 8,20 0,8 -3,15 -8,20 -5,5 -12,8 -20,8 -8,0 -15,-3 -20,-8l0 0c-5,-5 -8,-12 -8,-20 0,-3 0,-5 0,-8l-26 -15c-5,4 -11,7 -18,7 -7,0 -15,-3 -20,-8l0 0c-5,-6 -8,-13 -8,-20 0,-8 3,-15 8,-20l0 0c5,-6 13,-9 20,-9 7,0 14,3 19,7l26 -15c-1,-3 -1,-5 -1,-8 0,-7 3,-15 8,-20l0 0c5,-5 12,-8 20,-8 8,0 15,3 20,8l0 0c5,5 8,13 8,20 0,8 -3,15 -8,20l0 0c-5,5 -12,9 -20,9 -7,0 -13,-3 -18,-7l-26 15c0,3 1,5 1,8 0,2 -1,5 -1,7zm-20 -15c-2,-2 -5,-4 -8,-4 -3,0 -6,2 -8,4 -2,2 -3,4 -3,8 0,3 1,6 3,8 2,2 5,3 8,3 3,0 6,-1 8,-3l0 0c2,-2 4,-5 4,-8 0,-4 -2,-6 -4,-8l0 0zm72 -45c-2,-2 -5,-3 -8,-3 -3,0 -6,1 -8,3l0 0c-2,2 -3,5 -3,8 0,3 1,6 3,8 2,2 5,4 8,4 3,0 6,-2 8,-4l0 0c2,-2 3,-5 3,-8 0,-3 -1,-6 -3,-8l0 0zm0 89c-2,-2 -5,-3 -8,-3 -3,0 -6,1 -8,3 -2,2 -3,5 -3,8 0,3 1,6 3,8l0 0c2,2 5,3 8,3 3,0 6,-1 8,-3 2,-2 3,-5 3,-8 0,-3 -1,-6 -3,-8l0 0z"/>
 </g>
</svg>
