<svg xmlns="http://www.w3.org/2000/svg" xml:space="preserve" width="18px" height="18px" version="1.1" style="shape-rendering:geometricPrecision; text-rendering:geometricPrecision; image-rendering:optimizeQuality; fill-rule:evenodd; clip-rule:evenodd fill:#2B2A29"
viewBox="0 0 156 156"
 xmlns:xlink="http://www.w3.org/1999/xlink">
 <g id="Слой_x0020_1">
  <metadata id="CorelCorpID_0Corel-Layer"/>
  <g>
   <path class="fil0" d="M6 80c-5,-12 -8,-24 -5,-36 3,-12 10,-23 24,-34 2,-1 5,-1 6,1l0 0 24 38c1,2 1,5 -1,6l0 0c-5,3 -9,7 -11,11 -2,5 -2,9 -1,13 1,5 8,13 15,20 8,8 16,14 20,16 4,1 9,1 13,-1 4,-2 8,-6 12,-11 1,-2 3,-3 5,-2l0 0 38 24c2,2 3,4 2,6l-1 0c-10,14 -22,22 -34,24 -11,3 -23,1 -36,-4 -8,-4 -24,-18 -38,-32 -15,-15 -28,-31 -32,-39zm150 -5c1,4 -1,8 -5,9 -4,1 -9,-1 -10,-5 -4,-16 -12,-30 -23,-40l0 0c-11,-11 -25,-20 -40,-24 -4,-1 -7,-5 -6,-9 1,-4 6,-7 10,-6 18,5 34,15 47,28l0 0c13,12 22,29 27,47zm-25 7c1,4 -2,8 -6,9 -4,1 -8,-1 -9,-5 -3,-11 -9,-21 -17,-29 -7,-8 -17,-13 -28,-16 -4,-1 -7,-6 -6,-10 2,-4 6,-6 10,-5 14,3 26,11 35,20 10,10 17,22 21,36zm15 49l0 0 0 0z"/>
  </g>
 </g>
</svg>
