<?xml version="1.0" encoding="UTF-8"?>
<!DOCTYPE svg PUBLIC "-//W3C//DTD SVG 1.1//EN" "http://www.w3.org/Graphics/SVG/1.1/DTD/svg11.dtd">
<!-- Creator: CorelDRAW X7 -->
<svg xmlns="http://www.w3.org/2000/svg" xml:space="preserve" width="18px" height="18px" version="1.1" style="shape-rendering:geometricPrecision; text-rendering:geometricPrecision; image-rendering:optimizeQuality; fill-rule:evenodd; clip-rule:evenodd"
viewBox="0 0 135 135"
 xmlns:xlink="http://www.w3.org/1999/xlink">
 <defs>
  <style type="text/css">
   <![CDATA[
    .fil0 {fill:#2B2A29;fill-rule:nonzero}
   ]]>
  </style>
 </defs>
 <g id="Слой_x0020_1">
  <metadata id="CorelCorpID_0Corel-Layer"/>
  <path class="fil0" d="M68 0c18,0 35,8 47,20 13,12 20,29 20,48 0,18 -7,35 -20,47 -12,13 -29,20 -47,20 -19,0 -36,-7 -48,-20 -12,-12 -20,-29 -20,-47 0,-19 8,-36 20,-48 12,-12 29,-20 48,-20zm36 65l10 0 0 5 -10 0 0 -5zm5 -19l-8 5 -3 -4 9 -4 2 3zm-16 -18l-5 9 -4 -2 5 -9 4 2zm-23 -7l0 10 -4 0 0 -10 4 0zm-24 5l5 8 -4 3 -4 -9 3 -2zm-18 16l9 5 -2 4 -9 -5 2 -4zm-7 23l10 0 0 5 -10 0 0 -5zm92 14c-5,20 -24,35 -45,35 -22,0 -41,-15 -46,-35l25 0c0,0 0,0 0,0 0,12 9,21 21,21 11,0 20,-9 20,-21 0,0 0,0 0,0l25 0zm-45 -12c7,0 12,6 12,12 0,7 -6,12 -12,12 -7,0 -13,-5 -13,-12 0,-2 1,-4 2,-6l0 0 -8 -29 19 23zm39 -39c-10,-10 -24,-16 -39,-16 -16,0 -30,6 -40,16 -10,10 -16,24 -16,40 0,15 6,29 16,39 10,10 24,16 40,16 15,0 29,-6 39,-16 10,-10 16,-24 16,-39 0,-16 -6,-30 -16,-40z"/>
 </g>
</svg>
