<svg width="30" height="30" viewBox="0 0 30 30" fill="none" xmlns="http://www.w3.org/2000/svg">
<path d="M27.5 0.462952H2.4074C1.33351 0.462952 0.462952 1.33351 0.462952 2.4074V27.5C0.462952 28.5739 1.33351 29.4444 2.4074 29.4444H27.5C28.5739 29.4444 29.4444 28.5739 29.4444 27.5V2.4074C29.4444 1.33351 28.5739 0.462952 27.5 0.462952Z" fill="#FEFEFE"/>
<path opacity="0.3" d="M2.40741 0H27.5926C28.2407 0 28.7963 0.277778 29.2593 0.740741C29.7222 1.11111 30 1.75926 30 2.40741V27.5926C30 28.2407 29.7222 28.7963 29.2593 29.2593C28.7963 29.7222 28.2407 30 27.5926 30H2.40741C1.75926 30 1.11111 29.7222 0.740741 29.2593C0.277778 28.7963 0 28.2407 0 27.5926V2.40741C0 1.75926 0.277778 1.11111 0.740741 0.740741C1.11111 0.277778 1.75926 0 2.40741 0ZM11.7593 10.7407C11.3889 10.2778 11.3889 9.72222 11.7593 9.25926C12.2222 8.88889 12.7778 8.88889 13.2407 9.25926L18.2407 14.2593C18.6111 14.6296 18.6111 15.2778 18.2407 15.7407L13.2407 20.6481C12.7778 21.1111 12.2222 21.1111 11.7593 20.6481C11.3889 20.2778 11.3889 19.6296 11.7593 19.2593L16.1111 15L11.7593 10.7407ZM27.5926 1.01852H2.40741C2.03704 1.01852 1.66667 1.2037 1.38889 1.38889C1.2037 1.66667 1.01852 2.03704 1.01852 2.40741V27.5926C1.01852 27.963 1.2037 28.3333 1.38889 28.5185C1.66667 28.7963 2.03704 28.9815 2.40741 28.9815H27.5926C27.963 28.9815 28.3333 28.7963 28.5185 28.5185H28.6111C28.7963 28.3333 28.9815 27.963 28.9815 27.5926V2.40741C28.9815 2.03704 28.7963 1.66667 28.6111 1.38889H28.5185C28.3333 1.2037 27.963 1.01852 27.5926 1.01852Z" fill="#2B2A29"/>
</svg>
